<?xml version="1.0" encoding="utf-8"?>
<!-- Generator: Adobe Illustrator 16.0.0, SVG Export Plug-In . SVG Version: 6.00 Build 0)  -->
<!DOCTYPE svg PUBLIC "-//W3C//DTD SVG 1.1//EN" "http://www.w3.org/Graphics/SVG/1.1/DTD/svg11.dtd">
<svg version="1.1" id="Layer_1" xmlns="http://www.w3.org/2000/svg" xmlns:xlink="http://www.w3.org/1999/xlink" x="0px" y="0px"
	 width="600px" height="450px" viewBox="0 0 600 450" enable-background="new 0 0 600 450" xml:space="preserve">
<path fill="#E5DCFF" d="M212.683,50.944c20.94,15.016,46.357,26.956,70.988,20.901c33.708-8.287,54.565-47.11,88.052-56.357
	c34.064-9.408,68.736,15.467,89.63,45.491c15.418,22.157,26.576,51.232,17.341,76.964c-10.311,28.729-43.499,46.219-45.634,76.871
	c-1.603,22.978,15.332,42.235,31.417,57.739c16.084,15.504,33.852,33.197,34.728,56.221c0.647,17.1-8.557,33-19.706,45.381
	c-22.878,25.416-58.168,40.797-89.917,30.711c-33.279-10.572-59.695-46.869-94.227-42.805c-20.783,2.447-37.035,19.17-53.43,32.924
	c-39.199,32.885-88.085,52.605-137.997,55.664c-21.558,1.324-44.241-0.707-62.618-12.721
	c-26.575-17.377-38.837-55.818-27.661-86.715c10.277-28.41,36.984-44.674,46.933-73.236c10.121-29.064-4.383-57.667-24.355-77.09
	C21.42,186.491-8.706,167.251,2.409,141.536c8.402-19.439,34.863-21.894,31.637-47.816c-1.686-13.544-11.163-24.875-9.204-39.115
	c3.456-25.128,28.14-42.549,49.486-49.025c26.617-8.075,59.897-6.857,84.813,6.696C178.435,22.772,194.808,38.125,212.683,50.944z"
	/>
<g>
	<path opacity="0.8" fill="#E5DCFF" d="M199.752,410.172c0,4.994-15.904,9.041-35.521,9.041c-19.617,0-35.521-4.047-35.521-9.041
		c0-4.99,15.903-9.039,35.521-9.039C183.848,401.133,199.752,405.182,199.752,410.172z"/>
	<ellipse opacity="0.8" fill="#E5DCFF" cx="489.958" cy="399.121" rx="35.52" ry="9.043"/>
	<path opacity="0.8" fill="#E5DCFF" d="M360.564,382.377c-15.795,0-29.175,1.508-33.793,3.59c-4.232-1.418-13.912-2.414-25.19-2.414
		c-15.173,0-27.474,1.797-27.474,4.018c0,2.217,12.301,4.018,27.474,4.018c11.278,0,20.958-0.996,25.19-2.418
		c4.618,2.086,17.998,3.594,33.793,3.594c19.618,0,35.521-2.324,35.521-5.193S380.183,382.377,360.564,382.377z"/>
	<g>
		<g>
			<g>
				<g>
					<path fill="#FFFFFF" d="M467.545,144.542H191.979c-10.53,0-19.065,8.536-19.065,19.065v151.884
						c0,10.529,8.536,19.066,19.065,19.066h275.566c10.529,0,19.064-8.537,19.064-19.066V163.608
						C486.609,153.079,478.074,144.542,467.545,144.542z"/>
					<path fill="#FEFEFE" d="M467.854,144.232H192.288c-10.529,0-19.065,8.536-19.065,19.065v151.884
						c0,10.529,8.536,19.066,19.065,19.066h275.566c10.53,0,19.065-8.537,19.065-19.066V163.298
						C486.92,152.769,478.385,144.232,467.854,144.232z"/>
					<path fill="#FDFDFD" d="M468.165,143.922H192.598c-10.528,0-19.064,8.536-19.064,19.065v151.883
						c0,10.529,8.536,19.068,19.064,19.068h275.567c10.529,0,19.064-8.539,19.064-19.068V162.988
						C487.229,152.458,478.694,143.922,468.165,143.922z"/>
					<path fill="#FCFCFC" d="M468.476,143.612H192.908c-10.529,0-19.065,8.536-19.065,19.065v151.885
						c0,10.527,8.536,19.066,19.065,19.066h275.567c10.529,0,19.064-8.539,19.064-19.066V162.677
						C487.54,152.148,479.005,143.612,468.476,143.612z"/>
					<path fill="#FBFBFB" d="M468.785,143.302H193.219c-10.529,0-19.065,8.536-19.065,19.065v151.885
						c0,10.529,8.536,19.066,19.065,19.066h275.566c10.529,0,19.065-8.537,19.065-19.066V162.367
						C487.851,151.838,479.314,143.302,468.785,143.302z"/>
					<path fill="#FAFAFA" d="M469.096,142.992H193.529c-10.53,0-19.065,8.536-19.065,19.065v151.884
						c0,10.529,8.536,19.066,19.065,19.066h275.566c10.529,0,19.064-8.537,19.064-19.066V162.057
						C488.16,151.528,479.625,142.992,469.096,142.992z"/>
					<path fill="#F9F9FA" d="M469.406,142.682H193.839c-10.529,0-19.064,8.536-19.064,19.065v151.884
						c0,10.529,8.535,19.066,19.064,19.066h275.567c10.528,0,19.064-8.537,19.064-19.066V161.747
						C488.471,151.217,479.935,142.682,469.406,142.682z"/>
					<path fill="#F8F8F9" d="M469.717,142.371H194.149c-10.529,0-19.065,8.537-19.065,19.065V313.32
						c0,10.529,8.536,19.066,19.065,19.066h275.567c10.528,0,19.063-8.537,19.063-19.066V161.437
						C488.78,150.908,480.245,142.371,469.717,142.371z"/>
					<path fill="#F7F8F8" d="M470.026,142.061H194.459c-10.529,0-19.064,8.536-19.064,19.065v151.885
						c0,10.527,8.536,19.066,19.064,19.066h275.567c10.529,0,19.064-8.539,19.064-19.066V161.126
						C489.091,150.597,480.556,142.061,470.026,142.061z"/>
					<path fill="#F6F7F7" d="M470.336,141.751H194.77c-10.529,0-19.065,8.536-19.065,19.065v151.885
						c0,10.529,8.536,19.066,19.065,19.066h275.566c10.529,0,19.065-8.537,19.065-19.066V160.816
						C489.401,150.287,480.865,141.751,470.336,141.751z"/>
					<path fill="#F5F6F6" d="M470.646,141.441H195.08c-10.529,0-19.065,8.536-19.065,19.065v151.884
						c0,10.529,8.536,19.066,19.065,19.066h275.566c10.529,0,19.064-8.537,19.064-19.066V160.506
						C489.711,149.977,481.176,141.441,470.646,141.441z"/>
					<path fill="#F4F5F5" d="M470.957,141.13H195.39c-10.529,0-19.064,8.536-19.064,19.065V312.08
						c0,10.529,8.535,19.066,19.064,19.066h275.567c10.529,0,19.064-8.537,19.064-19.066V160.196
						C490.021,149.667,481.486,141.13,470.957,141.13z"/>
					<path fill="#F3F4F4" d="M471.267,140.82H195.7c-10.529,0-19.065,8.537-19.065,19.066V311.77
						c0,10.529,8.536,19.066,19.065,19.066h275.566c10.529,0,19.065-8.537,19.065-19.066V159.886
						C490.332,149.356,481.796,140.82,471.267,140.82z"/>
					<path fill="#F2F3F3" d="M471.577,140.51H196.011c-10.53,0-19.065,8.536-19.065,19.065v151.883
						c0,10.529,8.536,19.068,19.065,19.068h275.566c10.529,0,19.064-8.539,19.064-19.068V159.576
						C490.642,149.046,482.106,140.51,471.577,140.51z"/>
					<path fill="#F1F2F2" d="M471.887,140.2H196.32c-10.529,0-19.064,8.536-19.064,19.065V311.15
						c0,10.529,8.535,19.066,19.064,19.066h275.566c10.529,0,19.065-8.537,19.065-19.066V159.265
						C490.952,148.736,482.416,140.2,471.887,140.2z"/>
					<path fill="#F0F1F1" d="M472.197,139.89H196.631c-10.529,0-19.065,8.536-19.065,19.065V310.84
						c0,10.529,8.536,19.066,19.065,19.066h275.566c10.529,0,19.064-8.537,19.064-19.066V158.955
						C491.262,148.426,482.727,139.89,472.197,139.89z"/>
					<path fill="#EFF0F0" d="M472.508,139.58H196.941c-10.53,0-19.065,8.536-19.065,19.065v151.884
						c0,10.529,8.536,19.066,19.065,19.066h275.566c10.529,0,19.064-8.537,19.064-19.066V158.645
						C491.572,148.116,483.037,139.58,472.508,139.58z"/>
					<path fill="#EEEFEF" d="M472.818,139.269H197.251c-10.529,0-19.065,8.537-19.065,19.065v151.884
						c0,10.529,8.536,19.066,19.065,19.066h275.567c10.528,0,19.064-8.537,19.064-19.066V158.334
						C491.883,147.806,483.347,139.269,472.818,139.269z"/>
					<path fill="#EDEEEF" d="M473.128,138.959H197.562c-10.53,0-19.065,8.536-19.065,19.065v151.883
						c0,10.531,8.536,19.066,19.065,19.066h275.566c10.529,0,19.064-8.535,19.064-19.066V158.025
						C492.192,147.496,483.657,138.959,473.128,138.959z"/>
					<path fill="#ECEDEE" d="M473.438,138.649H197.871c-10.529,0-19.064,8.536-19.064,19.065v151.883
						c0,10.531,8.535,19.068,19.064,19.068h275.567c10.528,0,19.064-8.537,19.064-19.068V157.714
						C492.503,147.185,483.967,138.649,473.438,138.649z"/>
					<path fill="#EBECED" d="M473.748,138.338H198.182c-10.529,0-19.064,8.536-19.064,19.066v151.885
						c0,10.529,8.535,19.066,19.064,19.066h275.566c10.529,0,19.064-8.537,19.064-19.066V157.404
						C492.813,146.875,484.277,138.338,473.748,138.338z"/>
					<path fill="#EAEBEC" d="M474.059,138.029H198.492c-10.53,0-19.065,8.536-19.065,19.065v151.884
						c0,10.529,8.535,19.066,19.065,19.066h275.566c10.529,0,19.064-8.537,19.064-19.066V157.094
						C493.123,146.565,484.588,138.029,474.059,138.029z"/>
					<path fill="#E9EAEB" d="M474.369,137.718H198.802c-10.529,0-19.064,8.536-19.064,19.065v151.884
						c0,10.529,8.535,19.066,19.064,19.066h275.567c10.528,0,19.064-8.537,19.064-19.066V156.784
						C493.434,146.254,484.897,137.718,474.369,137.718z"/>
					<path fill="#E8E9EA" d="M474.679,137.409H199.112c-10.529,0-19.065,8.536-19.065,19.065v151.884
						c0,10.531,8.536,19.066,19.065,19.066h275.566c10.529,0,19.064-8.535,19.064-19.066V156.474
						C493.743,145.945,485.208,137.409,474.679,137.409z"/>
					<path fill="#E8E9E9" d="M474.989,137.098H199.422c-10.529,0-19.064,8.536-19.064,19.065v151.883
						c0,10.531,8.535,19.068,19.064,19.068h275.567c10.528,0,19.064-8.537,19.064-19.068V156.164
						C494.054,145.634,485.518,137.098,474.989,137.098z"/>
					<path fill="#E7E8E8" d="M475.299,136.788H199.732c-10.529,0-19.064,8.536-19.064,19.066v151.883
						c0,10.531,8.535,19.068,19.064,19.068h275.566c10.529,0,19.064-8.537,19.064-19.068V155.854
						C494.363,145.324,485.828,136.788,475.299,136.788z"/>
					<path fill="#E6E7E7" d="M475.609,136.478H200.043c-10.53,0-19.065,8.536-19.065,19.065v151.883
						c0,10.531,8.536,19.068,19.065,19.068h275.566c10.529,0,19.064-8.537,19.064-19.068V155.543
						C494.674,145.014,486.139,136.478,475.609,136.478z"/>
					<path fill="#E5E6E6" d="M475.92,136.167H200.354c-10.53,0-19.065,8.536-19.065,19.065v151.884
						c0,10.531,8.535,19.066,19.065,19.066H475.92c10.528,0,19.064-8.535,19.064-19.066V155.233
						C494.984,144.704,486.448,136.167,475.92,136.167z"/>
					<path fill="#E4E5E5" d="M476.229,135.857H200.663c-10.529,0-19.065,8.536-19.065,19.066v151.884
						c0,10.531,8.536,19.066,19.065,19.066h275.566c10.529,0,19.065-8.535,19.065-19.066V154.923
						C495.295,144.393,486.759,135.857,476.229,135.857z"/>
					<path fill="#E3E4E4" d="M476.54,135.547H200.973c-10.529,0-19.064,8.537-19.064,19.066v151.883
						c0,10.531,8.535,19.066,19.064,19.066H476.54c10.528,0,19.064-8.535,19.064-19.066V154.613
						C495.604,144.083,487.068,135.547,476.54,135.547z"/>
					<path fill="#E2E3E4" d="M476.85,135.237H201.283c-10.529,0-19.064,8.536-19.064,19.065v151.883
						c0,10.531,8.535,19.068,19.064,19.068H476.85c10.529,0,19.064-8.537,19.064-19.068V154.302
						C495.914,143.773,487.379,135.237,476.85,135.237z"/>
					<path fill="#E1E2E3" d="M477.16,134.927H201.594c-10.529,0-19.065,8.536-19.065,19.065v151.883
						c0,10.531,8.536,19.068,19.065,19.068H477.16c10.529,0,19.064-8.537,19.064-19.068V153.992
						C496.225,143.463,487.689,134.927,477.16,134.927z"/>
					<path fill="#E0E1E2" d="M477.471,134.617H201.904c-10.53,0-19.065,8.536-19.065,19.065v151.884
						c0,10.529,8.535,19.066,19.065,19.066h275.566c10.528,0,19.064-8.537,19.064-19.066V153.682
						C496.535,143.153,487.999,134.617,477.471,134.617z"/>
					<path fill="#DFE0E1" d="M477.781,134.306H202.214c-10.529,0-19.065,8.536-19.065,19.066v151.884
						c0,10.531,8.536,19.066,19.065,19.066h275.567c10.527,0,19.064-8.535,19.064-19.066V153.372
						C496.846,142.842,488.309,134.306,477.781,134.306z"/>
					<path fill="#DEDFE0" d="M478.091,133.996H202.524c-10.53,0-19.065,8.537-19.065,19.065v151.884
						c0,10.531,8.535,19.066,19.065,19.066h275.566c10.528,0,19.064-8.535,19.064-19.066V153.062
						C497.155,142.533,488.619,133.996,478.091,133.996z"/>
					<path fill="#DDDEDF" d="M478.401,133.686H202.834c-10.529,0-19.064,8.536-19.064,19.065v151.883
						c0,10.531,8.535,19.068,19.064,19.068h275.567c10.528,0,19.064-8.537,19.064-19.068V152.751
						C497.466,142.222,488.93,133.686,478.401,133.686z"/>
					<path fill="#DCDDDE" d="M478.711,133.375H203.145c-10.529,0-19.065,8.537-19.065,19.066v151.883
						c0,10.531,8.536,19.068,19.065,19.068h275.566c10.529,0,19.064-8.537,19.064-19.068V152.441
						C497.775,141.912,489.24,133.375,478.711,133.375z"/>
					<path fill="#DBDCDD" d="M479.021,133.065H203.455c-10.53,0-19.065,8.537-19.065,19.066v151.882
						c0,10.533,8.535,19.068,19.065,19.068h275.566c10.528,0,19.064-8.535,19.064-19.068V152.131
						C498.086,141.602,489.55,133.065,479.021,133.065z"/>
					<path fill="#DADBDC" d="M479.331,132.755H203.765c-10.529,0-19.064,8.537-19.064,19.065v151.884
						c0,10.531,8.535,19.066,19.064,19.066h275.566c10.528,0,19.065-8.535,19.065-19.066V151.821
						C498.396,141.292,489.859,132.755,479.331,132.755z"/>
					<path fill="#D9DADB" d="M479.642,132.445H204.075c-10.53,0-19.065,8.537-19.065,19.065v151.884
						c0,10.531,8.535,19.066,19.065,19.066h275.566c10.528,0,19.064-8.535,19.064-19.066V151.511
						C498.706,140.982,490.17,132.445,479.642,132.445z"/>
					<path fill="#D8DADA" d="M479.952,132.135H204.386c-10.53,0-19.065,8.536-19.065,19.065v151.883
						c0,10.531,8.535,19.066,19.065,19.066h275.566c10.528,0,19.064-8.535,19.064-19.066V151.201
						C499.017,140.671,490.48,132.135,479.952,132.135z"/>
					<path fill="#D7D9D9" d="M480.262,131.825H204.695c-10.529,0-19.065,8.536-19.065,19.066v151.883
						c0,10.533,8.536,19.068,19.065,19.068h275.566c10.528,0,19.064-8.535,19.064-19.068V150.891
						C499.326,140.361,490.79,131.825,480.262,131.825z"/>
					<path fill="#D6D8D9" d="M480.572,131.515H205.006c-10.529,0-19.065,8.536-19.065,19.065v151.883
						c0,10.533,8.536,19.068,19.065,19.068h275.566c10.528,0,19.064-8.535,19.064-19.068V150.58
						C499.637,140.051,491.101,131.515,480.572,131.515z"/>
					<path fill="#D5D7D8" d="M480.883,131.205H205.316c-10.53,0-19.065,8.536-19.065,19.065v151.884
						c0,10.531,8.535,19.066,19.065,19.066h275.566c10.527,0,19.064-8.535,19.064-19.066V150.27
						C499.947,139.741,491.41,131.205,480.883,131.205z"/>
					<path fill="#D4D6D7" d="M481.192,130.895H205.626c-10.53,0-19.064,8.536-19.064,19.065v151.884
						c0,10.531,8.534,19.066,19.064,19.066h275.566c10.528,0,19.064-8.535,19.064-19.066V149.96
						C500.257,139.431,491.721,130.895,481.192,130.895z"/>
					<path fill="#D3D5D6" d="M481.503,130.584H205.937c-10.53,0-19.065,8.536-19.065,19.065v151.883
						c0,10.531,8.535,19.066,19.065,19.066h275.566c10.528,0,19.064-8.535,19.064-19.066V149.65
						C500.567,139.12,492.031,130.584,481.503,130.584z"/>
					<path fill="#D2D4D5" d="M481.813,130.274H206.246c-10.529,0-19.064,8.536-19.064,19.065v151.883
						c0,10.533,8.535,19.068,19.064,19.068h275.566c10.528,0,19.064-8.535,19.064-19.068V149.339
						C500.877,138.81,492.341,130.274,481.813,130.274z"/>
					<path fill="#D1D3D4" d="M482.123,129.964H206.557c-10.529,0-19.065,8.536-19.065,19.065v151.883
						c0,10.533,8.536,19.068,19.065,19.068h275.566c10.528,0,19.064-8.535,19.064-19.068V149.029
						C501.188,138.5,492.651,129.964,482.123,129.964z"/>
				</g>
			</g>
			<path fill="#6136C9" d="M482.123,129.964H206.557c-10.529,0-19.065,8.536-19.065,19.065v151.883
				c0,10.533,8.536,19.068,19.065,19.068h275.566c10.528,0,19.064-8.535,19.064-19.068V149.029
				C501.188,138.5,492.651,129.964,482.123,129.964z"/>
			<path fill="#B38FF7" d="M474.936,140.098H222.127c-5.246,0-9.499,4.253-9.499,9.498v150.752c0,5.246,4.253,9.496,9.499,9.496
				h252.809c5.246,0,9.497-4.25,9.497-9.496V149.596C484.433,144.351,480.182,140.098,474.936,140.098z"/>
			<circle fill="#B38FF7" cx="200.28" cy="224.972" r="6.386"/>
			<path fill="#FFFFFF" d="M465.088,150.701H233.516c-4.602,0-8.332,3.73-8.332,8.332v130.854c0,4.602,3.73,8.332,8.332,8.332
				h231.572c4.602,0,8.332-3.73,8.332-8.332V159.032C473.42,154.431,469.689,150.701,465.088,150.701z"/>
			<path fill="#FFCE55" d="M465.088,150.701H233.516c-4.602,0-8.332,3.73-8.332,8.332v14.041H473.42v-14.041
				C473.42,154.431,469.689,150.701,465.088,150.701z"/>
			<path fill="#DB3931" d="M427.051,215.976c-9.625,0.243-16.763-8.655-25.64-12.39c-11.32-4.764-25.132-0.271-33.449,8.767
				c-3.914,4.255-7.432,9.781-13.129,10.769c-8.119,1.407-14.681-7.288-22.869-8.203c-12.113-1.354-19.952,14.042-31.983,15.999
				c-10.91,1.771-22.181-8.065-32.354-3.738c-4.422,1.883-7.365,6.041-10.961,9.232c-3.596,3.188-9.068,5.465-13.093,2.836v15.936
				h212.609v-54.495C446.323,205.104,437.85,215.701,427.051,215.976z"/>
			<circle fill="#FFCE55" cx="251.794" cy="274.479" r="7.616"/>
			<rect x="266.131" y="270.412" fill="#FFCE55" width="73.715" height="8.133"/>
			<rect x="382.468" y="263.246" fill="#00A79D" width="73.715" height="4.066"/>
			<rect x="382.468" y="272.445" fill="#00A79D" width="73.715" height="4.066"/>
			<rect x="382.468" y="281.645" fill="#00A79D" width="73.715" height="4.063"/>
			<rect x="243.573" y="182.316" fill="#00A79D" width="37.177" height="13.211"/>
			<circle fill="#5FC8D7" cx="458.565" cy="161.886" r="4.321"/>
			<circle fill="#F7941D" cx="423.647" cy="161.886" r="4.321"/>
			<circle fill="#EF4065" cx="441.353" cy="161.886" r="4.321"/>
		</g>
		<path fill="#F16680" d="M441.053,341.777h-2.871c-0.225-0.73-0.51-1.428-0.866-2.092l2.03-2.031c0.755-0.752,0.755-1.975,0-2.73
			l-2.004-2.002c-0.755-0.756-1.977-0.756-2.729,0l-2.03,2.031c-0.663-0.357-1.36-0.643-2.091-0.867v-2.871
			c0-1.066-0.865-1.93-1.931-1.93h-2.837c-1.063,0-1.929,0.863-1.929,1.93v2.871c-0.732,0.225-1.428,0.51-2.091,0.867l-2.03-2.031
			c-0.753-0.756-1.975-0.756-2.729,0l-2.004,2.002c-0.755,0.756-0.755,1.979,0,2.73l2.03,2.031
			c-0.356,0.664-0.644,1.361-0.866,2.092h-2.871c-1.066,0-1.931,0.863-1.931,1.932v2.834c0,1.066,0.864,1.93,1.931,1.93h2.871
			c0.223,0.73,0.51,1.428,0.866,2.092l-2.03,2.029c-0.755,0.752-0.755,1.975,0,2.73l2.004,2.002c0.755,0.756,1.977,0.756,2.729,0
			l2.03-2.029c0.663,0.355,1.358,0.643,2.091,0.865v2.873c0,1.064,0.865,1.932,1.929,1.932h2.837c1.065,0,1.931-0.867,1.931-1.932
			v-2.873c0.73-0.223,1.428-0.51,2.091-0.865l2.03,2.029c0.753,0.756,1.975,0.756,2.729,0l2.004-2.002
			c0.755-0.756,0.755-1.979,0-2.73l-2.03-2.029c0.356-0.664,0.642-1.361,0.866-2.092h2.871c1.066,0,1.931-0.863,1.931-1.93v-2.834
			C442.983,342.641,442.119,341.777,441.053,341.777z M427.143,350.602c-3.024,0-5.476-2.451-5.476-5.477s2.451-5.477,5.476-5.477
			c3.025,0,5.477,2.451,5.477,5.477S430.168,350.602,427.143,350.602z"/>
		<g>
			<path fill="#B38FF7" d="M268.738,334.588h-20.585c-2.415,0-4.374,1.959-4.374,4.373v20.586c0,2.414,1.959,4.375,4.374,4.375
				h20.585c2.416,0,4.374-1.961,4.374-4.375v-20.586C273.112,336.547,271.154,334.588,268.738,334.588z"/>
			<g>
				<path fill="#FFFFFF" d="M256.634,355.582l-5.499-5.5c-0.647-0.648-0.647-1.695,0-2.34c0.646-0.648,1.695-0.648,2.342,0
					l3.157,3.156l7.486-7.488c0.647-0.645,1.695-0.645,2.342,0c0.647,0.648,0.647,1.695,0,2.344L256.634,355.582z"/>
			</g>
		</g>
		<g>
			<path fill="#FFCE55" d="M493.938,82.18l-8.455,21.643c2.463,0.849,5.102,1.315,7.851,1.315c11.191,0,20.599-7.631,23.305-17.974
				L493.938,82.18z"/>
			<path fill="#F16680" d="M493.749,80.14l23.301,5.117c0.241-1.368,0.374-2.772,0.374-4.209c0-13.304-10.786-24.09-24.091-24.09
				c-7.534,0-14.261,3.461-18.679,8.88L493.749,80.14z"/>
			<path fill="#00A79D" d="M492.153,81.383l-18.669-13.984c-2.674,3.88-4.241,8.581-4.241,13.648
				c0,9.865,5.932,18.339,14.421,22.065L492.153,81.383z"/>
		</g>
		<g>
			<rect x="490.179" y="145.033" fill="#5FC8D7" width="43.496" height="27.356"/>
			<polygon fill="#8CECF4" points="490.179,145.033 511.927,159.996 533.675,145.033 			"/>
		</g>
		<g>
			<g>
				<g>
					<path fill="#FFFFFF" d="M502.903,200.822H360.23c-4.162,0-7.537,3.372-7.537,7.535v98.809c0,4.162,3.375,7.537,7.537,7.537
						h142.673c4.161,0,7.537-3.375,7.537-7.537v-98.809C510.44,204.194,507.064,200.822,502.903,200.822z"/>
					<path fill="#FEFEFE" d="M503.136,200.589H360.463c-4.162,0-7.537,3.372-7.537,7.536v98.809c0,4.162,3.375,7.537,7.537,7.537
						h142.673c4.161,0,7.537-3.375,7.537-7.537v-98.809C510.673,203.961,507.297,200.589,503.136,200.589z"/>
					<path fill="#FDFDFD" d="M503.368,200.357H360.695c-4.162,0-7.536,3.372-7.536,7.535v98.809c0,4.162,3.374,7.537,7.536,7.537
						h142.673c4.161,0,7.537-3.375,7.537-7.537v-98.809C510.905,203.729,507.529,200.357,503.368,200.357z"/>
					<path fill="#FCFCFC" d="M503.601,200.125H360.928c-4.162,0-7.536,3.372-7.536,7.535v98.809c0,4.162,3.374,7.537,7.536,7.537
						h142.673c4.161,0,7.537-3.375,7.537-7.537V207.66C511.138,203.497,507.762,200.125,503.601,200.125z"/>
					<path fill="#FBFBFB" d="M503.834,199.892H361.16c-4.161,0-7.536,3.372-7.536,7.535v98.809c0,4.162,3.375,7.537,7.536,7.537
						h142.674c4.16,0,7.536-3.375,7.536-7.537v-98.809C511.37,203.264,507.994,199.892,503.834,199.892z"/>
					<path fill="#FAFAFA" d="M504.065,199.66H361.394c-4.163,0-7.537,3.372-7.537,7.535v98.809c0,4.162,3.374,7.537,7.537,7.537
						h142.672c4.162,0,7.537-3.375,7.537-7.537v-98.809C511.603,203.032,508.228,199.66,504.065,199.66z"/>
					<path fill="#F9F9FA" d="M504.299,199.427H361.625c-4.162,0-7.535,3.373-7.535,7.535v98.81c0,4.16,3.373,7.537,7.535,7.537
						h142.674c4.161,0,7.536-3.377,7.536-7.537v-98.81C511.835,202.799,508.46,199.427,504.299,199.427z"/>
					<path fill="#F8F8F9" d="M504.531,199.194H361.858c-4.162,0-7.536,3.373-7.536,7.535v98.81c0,4.16,3.374,7.537,7.536,7.537
						h142.673c4.161,0,7.536-3.377,7.536-7.537v-98.81C512.067,202.567,508.692,199.194,504.531,199.194z"/>
					<path fill="#F7F8F8" d="M504.764,198.961H362.091c-4.162,0-7.537,3.373-7.537,7.536v98.809c0,4.16,3.375,7.537,7.537,7.537
						h142.673c4.161,0,7.537-3.377,7.537-7.537v-98.809C512.301,202.334,508.925,198.961,504.764,198.961z"/>
					<path fill="#F6F7F7" d="M504.996,198.729H362.323c-4.162,0-7.536,3.372-7.536,7.535v98.81c0,4.16,3.374,7.537,7.536,7.537
						h142.673c4.161,0,7.537-3.377,7.537-7.537v-98.81C512.533,202.102,509.157,198.729,504.996,198.729z"/>
					<path fill="#F5F6F6" d="M505.229,198.497H362.556c-4.162,0-7.536,3.373-7.536,7.536v98.808c0,4.162,3.374,7.539,7.536,7.539
						h142.673c4.161,0,7.537-3.377,7.537-7.539v-98.808C512.766,201.87,509.39,198.497,505.229,198.497z"/>
					<path fill="#F4F5F5" d="M505.461,198.264H362.788c-4.161,0-7.536,3.373-7.536,7.536v98.808c0,4.162,3.375,7.537,7.536,7.537
						h142.673c4.161,0,7.537-3.375,7.537-7.537V205.8C512.998,201.637,509.622,198.264,505.461,198.264z"/>
					<path fill="#F3F4F4" d="M505.693,198.032H363.021c-4.161,0-7.536,3.373-7.536,7.535v98.808c0,4.162,3.375,7.537,7.536,7.537
						h142.673c4.162,0,7.537-3.375,7.537-7.537v-98.808C513.23,201.405,509.855,198.032,505.693,198.032z"/>
					<path fill="#F2F3F3" d="M505.926,197.799H363.254c-4.162,0-7.537,3.373-7.537,7.536v98.808c0,4.162,3.375,7.537,7.537,7.537
						h142.672c4.162,0,7.537-3.375,7.537-7.537v-98.808C513.463,201.171,510.088,197.799,505.926,197.799z"/>
					<path fill="#F1F2F2" d="M506.158,197.566H363.485c-4.161,0-7.536,3.373-7.536,7.536v98.808c0,4.162,3.375,7.537,7.536,7.537
						h142.673c4.162,0,7.537-3.375,7.537-7.537v-98.808C513.695,200.939,510.32,197.566,506.158,197.566z"/>
					<path fill="#F0F1F1" d="M506.392,197.333H363.719c-4.162,0-7.537,3.373-7.537,7.536v98.808c0,4.162,3.375,7.537,7.537,7.537
						h142.673c4.161,0,7.536-3.375,7.536-7.537V204.87C513.928,200.707,510.553,197.333,506.392,197.333z"/>
					<path fill="#EFF0F0" d="M506.623,197.101H363.951c-4.162,0-7.537,3.373-7.537,7.536v98.809c0,4.162,3.375,7.537,7.537,7.537
						h142.672c4.162,0,7.537-3.375,7.537-7.537v-98.809C514.16,200.474,510.785,197.101,506.623,197.101z"/>
					<path fill="#EEEFEF" d="M506.856,196.869H364.184c-4.162,0-7.537,3.373-7.537,7.536v98.809c0,4.162,3.375,7.537,7.537,7.537
						h142.673c4.161,0,7.537-3.375,7.537-7.537v-98.809C514.394,200.242,511.018,196.869,506.856,196.869z"/>
					<path fill="#EDEEEF" d="M507.089,196.636H364.416c-4.162,0-7.536,3.373-7.536,7.535v98.809c0,4.162,3.374,7.537,7.536,7.537
						h142.673c4.162,0,7.537-3.375,7.537-7.537v-98.809C514.626,200.009,511.251,196.636,507.089,196.636z"/>
					<path fill="#ECEDEE" d="M507.321,196.404H364.648c-4.162,0-7.536,3.373-7.536,7.535v98.809c0,4.162,3.374,7.537,7.536,7.537
						h142.673c4.162,0,7.536-3.375,7.536-7.537v-98.809C514.857,199.777,511.483,196.404,507.321,196.404z"/>
					<path fill="#EBECED" d="M507.554,196.171H364.881c-4.162,0-7.536,3.373-7.536,7.536v98.809c0,4.162,3.374,7.537,7.536,7.537
						h142.673c4.162,0,7.536-3.375,7.536-7.537v-98.809C515.09,199.544,511.716,196.171,507.554,196.171z"/>
					<path fill="#EAEBEC" d="M507.786,195.938H365.113c-4.161,0-7.536,3.374-7.536,7.536v98.809c0,4.162,3.375,7.537,7.536,7.537
						h142.673c4.162,0,7.536-3.375,7.536-7.537v-98.809C515.322,199.312,511.948,195.938,507.786,195.938z"/>
					<path fill="#E9EAEB" d="M508.019,195.706H365.346c-4.161,0-7.536,3.374-7.536,7.536v98.807c0,4.164,3.375,7.539,7.536,7.539
						h142.673c4.162,0,7.537-3.375,7.537-7.539v-98.807C515.556,199.079,512.181,195.706,508.019,195.706z"/>
					<path fill="#E8E9EA" d="M508.252,195.473H365.578c-4.161,0-7.535,3.374-7.535,7.536v98.81c0,4.162,3.374,7.535,7.535,7.535
						h142.674c4.161,0,7.536-3.373,7.536-7.535v-98.81C515.788,198.847,512.413,195.473,508.252,195.473z"/>
					<path fill="#E8E9E9" d="M508.484,195.241H365.811c-4.161,0-7.536,3.374-7.536,7.536v98.807c0,4.164,3.375,7.537,7.536,7.537
						h142.674c4.162,0,7.536-3.373,7.536-7.537v-98.807C516.021,198.614,512.646,195.241,508.484,195.241z"/>
					<path fill="#E7E8E8" d="M508.717,195.008H366.044c-4.162,0-7.537,3.374-7.537,7.537v98.807c0,4.164,3.375,7.537,7.537,7.537
						h142.673c4.162,0,7.536-3.373,7.536-7.537v-98.807C516.253,198.381,512.879,195.008,508.717,195.008z"/>
					<path fill="#E6E7E7" d="M508.949,194.776H366.276c-4.162,0-7.536,3.373-7.536,7.535v98.808c0,4.164,3.374,7.537,7.536,7.537
						h142.673c4.162,0,7.536-3.373,7.536-7.537v-98.808C516.485,198.149,513.111,194.776,508.949,194.776z"/>
					<path fill="#E5E6E6" d="M509.182,194.543H366.509c-4.161,0-7.536,3.374-7.536,7.536v98.808c0,4.162,3.375,7.537,7.536,7.537
						h142.673c4.162,0,7.536-3.375,7.536-7.537v-98.808C516.718,197.917,513.344,194.543,509.182,194.543z"/>
					<path fill="#E4E5E5" d="M509.414,194.31H366.741c-4.161,0-7.536,3.374-7.536,7.537v98.808c0,4.164,3.375,7.537,7.536,7.537
						h142.673c4.162,0,7.537-3.373,7.537-7.537v-98.808C516.951,197.684,513.576,194.31,509.414,194.31z"/>
					<path fill="#E3E4E4" d="M509.646,194.078H366.974c-4.161,0-7.536,3.374-7.536,7.536v98.808c0,4.164,3.375,7.537,7.536,7.537
						h142.673c4.162,0,7.537-3.373,7.537-7.537v-98.808C517.184,197.452,513.809,194.078,509.646,194.078z"/>
					<path fill="#E2E3E4" d="M509.879,193.845H367.206c-4.161,0-7.536,3.374-7.536,7.536v98.808c0,4.162,3.375,7.537,7.536,7.537
						h142.673c4.162,0,7.537-3.375,7.537-7.537v-98.808C517.416,197.219,514.041,193.845,509.879,193.845z"/>
					<path fill="#E1E2E3" d="M510.111,193.613H367.438c-4.161,0-7.536,3.374-7.536,7.536v98.808c0,4.162,3.375,7.537,7.536,7.537
						h142.673c4.162,0,7.537-3.375,7.537-7.537v-98.808C517.648,196.987,514.273,193.613,510.111,193.613z"/>
					<path fill="#E0E1E2" d="M510.344,193.38H367.672c-4.162,0-7.537,3.374-7.537,7.536v98.809c0,4.162,3.375,7.537,7.537,7.537
						h142.672c4.162,0,7.537-3.375,7.537-7.537v-98.809C517.881,196.754,514.506,193.38,510.344,193.38z"/>
					<path fill="#DFE0E1" d="M510.576,193.148H367.903c-4.161,0-7.536,3.374-7.536,7.536v98.809c0,4.162,3.375,7.537,7.536,7.537
						h142.673c4.163,0,7.537-3.375,7.537-7.537v-98.809C518.113,196.522,514.739,193.148,510.576,193.148z"/>
					<path fill="#DEDFE0" d="M510.81,192.915H368.137c-4.162,0-7.537,3.375-7.537,7.537v98.809c0,4.162,3.375,7.537,7.537,7.537
						H510.81c4.162,0,7.536-3.375,7.536-7.537v-98.809C518.346,196.289,514.972,192.915,510.81,192.915z"/>
					<path fill="#DDDEDF" d="M511.042,192.682H368.369c-4.161,0-7.537,3.375-7.537,7.537v98.809c0,4.162,3.376,7.537,7.537,7.537
						h142.673c4.162,0,7.536-3.375,7.536-7.537v-98.809C518.578,196.057,515.204,192.682,511.042,192.682z"/>
					<path fill="#DCDDDE" d="M511.274,192.45H368.602c-4.161,0-7.536,3.375-7.536,7.536v98.809c0,4.162,3.375,7.535,7.536,7.535
						h142.673c4.162,0,7.536-3.373,7.536-7.535v-98.809C518.811,195.824,515.437,192.45,511.274,192.45z"/>
					<path fill="#DBDCDD" d="M511.507,192.217H368.834c-4.162,0-7.536,3.374-7.536,7.536v98.807c0,4.164,3.374,7.539,7.536,7.539
						h142.673c4.162,0,7.536-3.375,7.536-7.539v-98.807C519.043,195.591,515.669,192.217,511.507,192.217z"/>
					<path fill="#DADBDC" d="M511.739,191.984H369.066c-4.161,0-7.536,3.375-7.536,7.537v98.807c0,4.164,3.375,7.537,7.536,7.537
						h142.673c4.163,0,7.536-3.373,7.536-7.537v-98.807C519.275,195.359,515.902,191.984,511.739,191.984z"/>
					<path fill="#D9DADB" d="M511.972,191.752H369.299c-4.161,0-7.536,3.374-7.536,7.536v98.807c0,4.164,3.375,7.537,7.536,7.537
						h142.673c4.163,0,7.536-3.373,7.536-7.537v-98.807C519.508,195.126,516.135,191.752,511.972,191.752z"/>
					<path fill="#D8DADA" d="M512.204,191.52H369.531c-4.161,0-7.536,3.375-7.536,7.537v98.807c0,4.164,3.375,7.537,7.536,7.537
						h142.673c4.163,0,7.536-3.373,7.536-7.537v-98.807C519.74,194.894,516.367,191.52,512.204,191.52z"/>
					<path fill="#D7D9D9" d="M512.438,191.287H369.764c-4.161,0-7.536,3.375-7.536,7.537v98.807c0,4.164,3.375,7.537,7.536,7.537
						h142.674c4.162,0,7.535-3.373,7.535-7.537v-98.807C519.973,194.662,516.6,191.287,512.438,191.287z"/>
					<path fill="#D6D8D9" d="M512.669,191.055H369.997c-4.162,0-7.536,3.375-7.536,7.536v98.808c0,4.164,3.374,7.537,7.536,7.537
						h142.672c4.163,0,7.536-3.373,7.536-7.537v-98.808C520.205,194.429,516.832,191.055,512.669,191.055z"/>
					<path fill="#D5D7D8" d="M512.902,190.822H370.229c-4.16,0-7.535,3.375-7.535,7.537v98.808c0,4.164,3.375,7.537,7.535,7.537
						h142.674c4.162,0,7.536-3.373,7.536-7.537v-98.808C520.438,194.197,517.064,190.822,512.902,190.822z"/>
					<path fill="#D4D6D7" d="M513.135,190.589H370.462c-4.161,0-7.536,3.375-7.536,7.537v98.808c0,4.164,3.375,7.537,7.536,7.537
						h142.673c4.162,0,7.536-3.373,7.536-7.537v-98.808C520.671,193.964,517.297,190.589,513.135,190.589z"/>
					<path fill="#D3D5D6" d="M513.367,190.356H370.694c-4.161,0-7.536,3.375-7.536,7.537v98.808c0,4.164,3.375,7.537,7.536,7.537
						h142.673c4.163,0,7.536-3.373,7.536-7.537v-98.808C520.903,193.731,517.53,190.356,513.367,190.356z"/>
					<path fill="#D2D4D5" d="M513.6,190.125H370.927c-4.161,0-7.536,3.375-7.536,7.536v98.808c0,4.164,3.375,7.537,7.536,7.537
						H513.6c4.163,0,7.536-3.373,7.536-7.537v-98.808C521.136,193.5,517.763,190.125,513.6,190.125z"/>
					<path fill="#D1D3D4" d="M513.832,189.892H371.159c-4.161,0-7.536,3.375-7.536,7.537v98.808c0,4.164,3.375,7.537,7.536,7.537
						h142.673c4.163,0,7.536-3.373,7.536-7.537v-98.808C521.368,193.267,517.995,189.892,513.832,189.892z"/>
				</g>
			</g>
			<path fill="#FFFFFF" d="M513.832,189.892H371.159c-4.161,0-7.536,3.375-7.536,7.537v98.808c0,4.164,3.375,7.537,7.536,7.537
				h142.673c4.163,0,7.536-3.373,7.536-7.537v-98.808C521.368,193.267,517.995,189.892,513.832,189.892z"/>
			<rect x="376.666" y="223.949" fill="#F16680" width="131.661" height="66.805"/>
			<circle fill="#FFCE55" cx="384.541" cy="205.604" r="7.875"/>
			<rect x="401.196" y="198.385" fill="#00A79D" width="55.317" height="5.372"/>
			<rect x="401.196" y="210.488" fill="#FFCE55" width="91.513" height="2.334"/>
			<polygon fill="#FFFFFF" points="454.813,257.354 433.92,247.076 433.92,267.627 			"/>
		</g>
		<g>
			<rect x="195.049" y="84.042" fill="#5FC8D7" width="5.233" height="4.866"/>
			<rect x="192.197" y="80.188" fill="#5FC8D7" width="10.937" height="3.854"/>
			<circle fill="#00A79D" cx="197.666" cy="105.063" r="17.54"/>
			<circle fill="#8CECF4" cx="197.666" cy="105.063" r="14.922"/>
			<g>
				<path fill="#DB3931" d="M210.049,108.349c-0.033,0-0.066-0.003-0.101-0.011c-0.243-0.055-0.396-0.298-0.339-0.541
					c0.202-0.891,0.305-1.812,0.305-2.735c0-5.793-4.113-10.84-9.779-12c-0.244-0.05-0.402-0.289-0.352-0.533
					c0.05-0.245,0.289-0.404,0.533-0.352c6.084,1.245,10.501,6.664,10.501,12.884c0,0.991-0.11,1.978-0.329,2.936
					C210.441,108.208,210.255,108.349,210.049,108.349z"/>
			</g>
			<circle fill="#DB3931" cx="197.666" cy="105.063" r="1.784"/>
			<g>
				<path fill="#DB3931" d="M197.666,105.514c-0.25,0-0.452-0.202-0.452-0.452V91.402c0-0.25,0.202-0.451,0.452-0.451
					c0.249,0,0.451,0.202,0.451,0.451v13.661C198.117,105.312,197.915,105.514,197.666,105.514z"/>
			</g>
			<g>
				<path fill="#DB3931" d="M207.192,109.831c-0.062,0-0.125-0.013-0.187-0.041l-9.527-4.316c-0.227-0.103-0.326-0.37-0.224-0.598
					c0.103-0.227,0.368-0.329,0.597-0.225l9.527,4.316c0.228,0.103,0.328,0.37,0.225,0.597
					C207.528,109.732,207.365,109.831,207.192,109.831z"/>
			</g>
			<circle fill="#006838" cx="197.665" cy="118.076" r="0.622"/>
			<circle fill="#006838" cx="188.464" cy="114.264" r="0.622"/>
			<circle fill="#006838" cx="184.653" cy="105.063" r="0.622"/>
			<circle fill="#006838" cx="188.464" cy="95.861" r="0.622"/>
			<circle fill="#006838" cx="206.867" cy="114.264" r="0.622"/>
			<path fill="#F16680" d="M189.086,84.79h-43.417l36.661,4.457c1.967-1.725,4.258-3.007,6.757-3.742V84.79z"/>
			<path fill="#F16680" d="M155.673,93.98l20.738,4.363c0.506-1.547,1.162-3.014,1.973-4.363H155.673z"/>
			<path fill="#F16680" d="M175.395,103.17h-12.312l12.317,4.227c-0.066-0.7-0.101-1.411-0.101-2.131
				C175.299,104.559,175.332,103.859,175.395,103.17z"/>
			<path fill="#F16680" d="M169.197,112.361l9.189,4.195c-0.782-1.3-1.419-2.709-1.917-4.195H169.197z"/>
		</g>
		<g>
			<rect x="129.256" y="250.436" fill="#F16680" width="5.414" height="14.27"/>
			<path fill="#F16680" d="M156.287,252.26c-0.352-0.951-1.263-1.578-2.276-1.578l-10.426-0.398c1.452-1.564,1.579-5.664,1.55-7.627
				c-0.008-0.596-0.49-1.074-1.087-1.074l0,0c-0.429,0-0.819,0.248-0.992,0.641c-0.375,0.852-1.208,2.412-2.731,3.834
				c-1.769,1.652-3.399,4.379-3.399,4.379v14.27h2.158h0.335h10.586c1.58,0,2.843-1.303,2.807-2.881
				c-0.008-0.369-0.014-0.756-0.014-1.145c0-2.092,4.178-3.879,4.178-5.523C156.975,254.324,156.627,253.182,156.287,252.26z"/>
		</g>
		<g>
			<polygon fill="#FFCE55" points="188.385,157.149 154.375,157.149 154.375,223.863 205.878,223.863 205.878,174.642 			"/>
			<polygon fill="#F7941D" points="188.385,157.149 205.878,174.642 188.385,174.642 			"/>
			<rect x="161.7" y="166.953" fill="#FFFFFF" width="18.426" height="3.348"/>
			<rect x="161.7" y="182.15" fill="#FFFFFF" width="36.665" height="3.346"/>
			<rect x="161.7" y="191.064" fill="#FFFFFF" width="36.665" height="3.348"/>
			<rect x="161.7" y="199.98" fill="#FFFFFF" width="36.665" height="3.348"/>
			<rect x="161.7" y="208.895" fill="#FFFFFF" width="36.665" height="3.346"/>
		</g>
		<g>
			<path fill="#F8E4D2" d="M300.509,375.217c0,0-2.424,2.57-2.972,4.602c-0.502,1.957-0.775,2.736-1.615,2.521
				s-8.631-3.668-10.857-5.059c-2.225-1.391,5.277-1.137,8.369-0.801c3.094,0.334,5.102-2.846,5.102-2.846L300.509,375.217z"/>
			<path fill="#006838" d="M297.537,379.818c0.094-0.348,0.244-0.709,0.426-1.072c-0.557-0.197-1.178-0.629-2.041-0.262
				c-1.695,0.727-5.344-1.336-6.572-2.256c-2.956-0.068-5.76,0.129-4.285,1.053c2.227,1.391,10.018,4.844,10.857,5.059
				S297.035,381.775,297.537,379.818z"/>
			<path fill="#BB4738" d="M362.809,343.982c0,0-0.208,12.436-21.876,11.449c-13.366-0.283-20.052-2.844-20.052-2.844
				s-12.313,17.141-21.201,23.928l-2.775-1.563c0,0,15.285-28.932,19.506-31.371c3.236-1.734,32.21-2.518,32.21-2.518
				L362.809,343.982z"/>
			<path opacity="0.5" fill="#BB4738" d="M311.728,349.299c0.722,3.889,1.593,9.287,1.324,13.395
				c4.472-5.434,7.829-10.105,7.829-10.105s1.123,0.424,3.328,0.945c0.344-2.545,1.043-7.586,1.278-8.295
				c0.163-0.492,0.408-1.814,0.378-3.053c-4.618,0.369-8.402,0.832-9.455,1.396C315.381,344.178,313.691,346.355,311.728,349.299z"
				/>
			<path fill="#F8E4D2" d="M314.291,377.447c0,0-0.965,3.4-0.514,5.455c0.458,1.965,0.574,2.785-0.27,2.982
				c-0.844,0.195-9.35,0.727-11.966,0.521c-2.617-0.209,4.156-3.445,7.055-4.576c2.897-1.131,3.214-4.875,3.214-4.875
				L314.291,377.447z"/>
			<path fill="#BB4738" d="M365.058,344.445c0,0,3.38,8.143-2.457,12.289c-5.839,4.148-36.722-3.783-36.722-3.783
				s-0.24,13.348-11.761,26.406l-3.243-0.998c0,0,6.68-28.785,10.826-34.777c7.221-2.609,26.919-2.518,26.919-2.518L365.058,344.445
				z"/>
			<path fill="#006838" d="M313.777,382.902c-0.077-0.354-0.109-0.744-0.117-1.148c-0.584,0.082-1.334-0.016-1.933,0.709
				c-1.169,1.428-5.355,1.283-6.87,1.031c-2.654,1.303-5.051,2.773-3.315,2.912c2.616,0.205,11.122-0.326,11.966-0.521
				C314.354,385.688,314.235,384.867,313.777,382.902z"/>
			<path opacity="0.5" fill="#BB4738" d="M362.601,356.734c5.837-4.146,2.457-12.289,2.457-12.289l-16.438-3.381
				c0,0-1.749-0.006-4.388,0.049c0.15,0.725,8.811,6.287,9.53,9.646c0.734,3.432-25.401,0.342-27.884,2.191
				C325.879,352.951,356.762,360.883,362.601,356.734z"/>
			<path fill="#FFBBA6" d="M324.836,328.232c0,0-1.225,0.35-1.946,0.098c-0.721-0.252-2.019-1.15-3.208-0.863
				s-2.559,2.596-3.1,3.314c-0.541,0.723,1.693,0,2.811-0.756c1.118-0.758,1.91,1.082,3.173,0.9
				c1.262-0.178,2.922-0.559,2.922-0.559L324.836,328.232z"/>
			<path fill="#FFCE55" d="M354.109,301.629c-3.289-0.781-6.566,1.363-7.143,4.695c-0.268,1.545-0.562,3.088-0.879,4.586
				c-0.372,1.764-0.79,3.508-1.278,5.102c-0.233,0.816-0.506,1.566-0.759,2.217c0,0-0.18,0.434-0.188,0.451
				c-0.385,0.928-0.897,1.178-1.78,1.646c-0.777,0.416-1.582,0.824-2.414,1.213c-1.654,0.793-3.369,1.543-5.102,2.271
				c-3.461,1.455-7.01,2.83-10.555,4.131l0.762,3.139c3.82-0.523,7.603-1.105,11.415-1.811c1.905-0.346,3.813-0.727,5.744-1.178
				c0.964-0.219,1.937-0.471,2.927-0.746c0.502-0.154,0.988-0.277,1.508-0.459l0.781-0.273l0.392-0.137
				c0.187-0.088,0.48-0.262,0.712-0.402c0.456-0.287,1.048-0.705,1.324-0.984l0.803-0.834l0.392-0.434l0.282-0.371l0.561-0.756
				c0.69-0.992,1.276-1.941,1.787-2.869c1.057-1.871,1.934-3.695,2.766-5.531c0.711-1.576,1.381-3.133,2.02-4.699
				C359.554,306.248,357.627,302.467,354.109,301.629z"/>
			<path opacity="0.5" fill="#FFCE55" d="M350.379,324.037l0.392-0.494l0.282-0.43l0.561-0.869c0.691-1.137,1.276-2.227,1.787-3.293
				c1.057-2.146,1.934-4.242,2.766-6.35c0.711-1.809,1.381-3.6,2.02-5.395c0.131-0.367,0.227-0.734,0.299-1.104
				c-0.465-2.119-2.076-3.928-4.375-4.475c-3.289-0.781-6.566,1.363-7.143,4.695c-0.268,1.545-0.562,3.088-0.879,4.586
				c-0.372,1.764-0.79,3.508-1.278,5.105c-0.233,0.813-0.506,1.563-0.759,2.213c0,0-0.18,0.434-0.188,0.451
				c-0.385,0.928-0.897,1.178-1.78,1.646c-0.005,0.004-0.01,0.006-0.016,0.01c0.537,2.227,1.164,5.262,1.218,7.412
				c0.524-0.133,1.042-0.252,1.575-0.402c0.502-0.154,0.988-0.277,1.508-0.459l0.781-0.273l0.392-0.137
				c0.187-0.088,0.48-0.262,0.712-0.402c0.164-0.105,0.342-0.225,0.52-0.348c0.318-0.256,0.627-0.523,0.805-0.729L350.379,324.037z"
				/>
			<path fill="#FFBBA6" d="M332.076,335.945c0,0-1.225,0.352-1.945,0.1c-0.722-0.25-2.02-1.154-3.209-0.865s-2.559,2.596-3.1,3.316
				c-0.54,0.719,1.694,0,2.813-0.758c1.117-0.756,1.91,1.08,3.172,0.902c1.262-0.182,2.922-0.559,2.922-0.559L332.076,335.945z"/>
			<path fill="#00A79D" d="M378.327,371.359v-12.646h2.104v-1.924h-44.73c-3.636,0-6.584,2.945-6.584,6.582v3.326
				c0,3.637,2.948,6.586,6.584,6.586h44.73v-1.924H378.327z"/>
			<path fill="#FFCE55" d="M364.061,326.939c0.382-5.414,0.99-10.949,0.314-16.363c-0.519-4.156-2.9-8.592-7.266-9.627
				c-2.355-0.555-4.221,0.031-5.99,1.07c-0.914,0.537-1.805,1.193-2.723,1.875c-3.285,2.443-7.662,7.482-6.611,12.285
				c0.56,2.559,1.437,3.926,2.964,5.852c1.7,2.145,2.379,4.623,2.466,7.328c0.026,0.805-1.402,9.395-2.555,10.955
				c-0.145,0.197-0.086,0.477,0.113,0.617c3.897,2.836,12.91,9.205,22.11,5.639C367.246,343.424,363.455,335.543,364.061,326.939z"
				/>
			<path fill="#FFFDEB" d="M336.611,358.713c-2.861,0-5.182,2.318-5.182,5.18v2.283c0,2.861,2.32,5.184,5.182,5.184h42.825v-12.646
				H336.611z"/>
			<path fill="#BB4738" d="M339.23,385.822v-10.617h-2.104v-1.922h44.729c3.637,0,6.585,2.947,6.585,6.584v1.297
				c0,3.637-2.948,6.584-6.585,6.584h-44.729v-1.926H339.23z"/>
			<path fill="#FEE0CF" d="M380.947,375.205c2.862,0,5.182,2.322,5.182,5.182v0.254c0,2.863-2.319,5.182-5.182,5.182h-42.824
				v-10.617H380.947z"/>
			<path fill="#FFBBA6" d="M348.495,282.879c-3.206,0.104-6.62,1.498-6.708,4.434c-0.115,3.887,1.156,4.982,1.154,6.266
				c-0.004,1.281-0.613,2.521-0.552,2.895c0.061,0.371,1.901-0.172,2.14,0.201c0.24,0.375,2.192,2.988,3.9,2.838
				c2.222-0.193,4.398-2.436,5.492-4.084c2.077-3.139,2.754-9.576-1.16-11.736C351.705,283.109,350.127,282.826,348.495,282.879z"/>
			<path fill="#FFBBA6" d="M355.818,301.459c-3.113-3.521-2.832-7.795-2.832-7.795s-3.604,0.115-2.832,2.096
				c0.771,1.98,0.124,6.648,0.124,6.648s-4.663,3.814-1.973,4.549c2.364,0.643,6.039-2.27,7.564-4.191
				C356.18,302.375,356.148,301.832,355.818,301.459z"/>
			<path fill="#0B5F99" d="M340.271,289.27c0,0,0.174,1.082,5.889,0.832c1.912-0.346,1.701,2.504,2.275,4.49
				c0.436,1.5,1.133-0.844,2.508-2.773c1.374-1.928,2.695,1.752,0.966,2.848c-1.729,1.1,1.346,5.752-3.837,7.801
				c2.237,1.018,7.257-0.451,10.916-3.252c3.657-2.801-1.116-14.318-3.799-17C352.506,279.531,339.227,278.379,340.271,289.27z"/>
			<g>
				<rect x="313.558" y="340.561" fill="#647FA0" width="26.134" height="2.592"/>
				<polygon fill="#7991B4" points="299.182,326.037 315.773,326.037 325.094,343.152 308.502,343.152 				"/>
				<path fill="#A2C4ED" d="M312.736,334.682c0.451,1.158,0.182,2.096-0.603,2.096s-1.786-0.938-2.238-2.096
					c-0.452-1.154-0.183-2.094,0.603-2.094C311.281,332.588,312.283,333.527,312.736,334.682z"/>
				<path opacity="0.5" fill="#7991B4" d="M308.502,343.152h16.592l-2.28-4.186c-8.399,1.314-15.21-2.107-19.333-5.037
					L308.502,343.152z"/>
			</g>
			<polygon fill="#FFE7C4" points="347.904,364.869 351.672,364.869 349.906,366.465 			"/>
			<polygon fill="#FFC9AE" points="362.784,377.764 366.552,377.764 364.785,379.357 			"/>
			<polygon fill="#FFE7C4" points="366.84,366.465 372.756,366.465 369.982,368.967 			"/>
			<polygon fill="#FFC9AE" points="344.374,379.262 350.291,379.262 347.518,381.766 			"/>
			<polygon fill="#FFE7C4" points="336.537,360.918 341.428,360.918 339.135,362.988 			"/>
			<polygon fill="#FFC9AE" points="375.109,382.441 379.998,382.441 377.704,384.512 			"/>
			<path opacity="0.5" fill="#FFCE55" d="M351.055,309.621c0,0,0.578,8.822,1.37,13.119c0.619,3.363-2.223,5.852-5.274,7.334
				c-0.141,1.104-0.495,3.219-0.937,5.266c4.874-0.975,14.083-2.908,14.103-3.611c0.025-0.959,1.494-10.459,0.816-12.492
				C360.454,317.201,352.06,309.504,351.055,309.621z"/>
			<path opacity="0.5" fill="#FFCE55" d="M364.061,326.939c0.014-0.193,0.029-0.387,0.043-0.58c-1.298-0.24-2.605-0.428-2.793-0.258
				c-0.383,0.346-9.6,10.77-12.546,12.15c0,0,11.122-2.139,12.546-1.295c1.317,0.783,3.715,6.383,3.044,10.332
				c0.84-0.172,1.683-0.389,2.529-0.719C367.246,343.424,363.455,335.543,364.061,326.939z"/>
			<path fill="#FFCE55" d="M363.542,317.465c-0.335-2.666-0.729-5.262-1.188-7.854c-0.595-3.369-4.024-5.451-7.303-4.473
				c-3.138,0.938-4.833,4.295-3.774,7.393c0.79,2.307,1.528,4.639,2.186,6.932c0.607,2.105,1.135,4.215,1.485,6.189
				c0.104,0.514,0.159,0.971,0.214,1.426c0.08,0.494,0.084,0.854,0.109,1.225l0.021,0.283c-0.006,0.037-0.008,0.074-0.008,0.113
				l0.015,0.117c-0.376,0.279-0.924,0.605-1.507,0.885c-0.869,0.414-1.846,0.789-2.846,1.143c-2.02,0.697-4.166,1.283-6.342,1.805
				c-4.354,1.035-8.867,1.859-13.336,2.506l0.219,3.844c4.693,0.049,9.324-0.064,14.045-0.434c2.359-0.191,4.73-0.449,7.164-0.881
				c1.221-0.225,2.453-0.486,3.74-0.863c1.297-0.412,2.626-0.84,4.215-1.898c0.809-0.658,1.748-1.277,2.505-2.973
				c0.216-0.451,0.19-0.535,0.29-0.82l0.198-0.717l0.178-0.725l0.078-0.576c0.104-0.775,0.191-1.561,0.195-2.211
				c0.029-0.695,0.049-1.387,0.022-2.016C364.07,322.287,363.84,319.859,363.542,317.465z"/>
			<path opacity="0.5" fill="#0B5F99" d="M353.763,288.689c-0.548-2.195-2.163-2.195-5.585-0.322
				c-2.585,1.412-6.233,0.141-7.951-0.623c-0.015,0.48-0.008,0.984,0.045,1.525c0,0,0.174,1.082,5.889,0.832
				c1.912-0.346,1.701,2.504,2.275,4.49c0.436,1.5,1.133-0.844,2.508-2.773c1.374-1.928,2.695,1.752,0.966,2.848
				c-1.729,1.1,1.346,5.752-3.837,7.801c2.237,1.018,7.257-0.451,10.916-3.252c1.623-1.24,1.582-4.201,0.805-7.344
				C357.207,294.541,354.293,290.813,353.763,288.689z"/>
			<path opacity="0.5" fill="#F4E0CB" d="M331.43,363.893v2.283c0,1.75,0.873,3.289,2.201,4.229
				c-1.831-5.387,0.307-7.711,2.906-7.711c2.362,0,36.604,0,42.899,0v-3.98h-42.825C333.75,358.713,331.43,361.031,331.43,363.893z"
				/>
			<path opacity="0.5" fill="#FEE0CF" d="M380.947,375.205h-42.824v2.559c6.213,0,39.46,0,41.875,0c2.212,0,5.197,2.445,5.424,5.449
				c0.437-0.762,0.707-1.631,0.707-2.572v-0.254C386.129,377.527,383.81,375.205,380.947,375.205z"/>
		</g>
		<g>
			<path fill="#FFBBA6" d="M385.778,114.912v-0.489c0-1.994-2.46-2.933-3.788-1.446l-8.652,9.687
				c-0.28,0.253-0.609,0.471-0.975,0.629c-0.114,0.067-0.47,0.157-0.768,0.244l-0.909,0.259l-9.494,3.012
				c-0.856,0.271-1.769,0.342-2.652,0.178c-0.492-0.091-1.002-0.219-1.412-0.395c-1.204-0.517-1.72-1.032-2.58-0.803
				c-0.86,0.229-4.242,1.778-4.528,3.268c-0.287,1.49,3.324-0.845,4.185-0.766c0.86,0.078,1.261,1.419,2.407,1.264
				c1.146-0.154,11.126-1.265,11.126-1.265l3.781-0.416l0.944-0.104c0.319-0.039,0.587-0.049,1.081-0.149
				c0.853-0.17,1.685-0.485,2.456-0.922c0.385-0.22,0.755-0.472,1.105-0.752l0.768-0.597l1.499-1.163l3.002-2.326l0,0
				C384.246,120.408,385.778,117.282,385.778,114.912z"/>
			<path opacity="0.5" fill="#FFBBA6" d="M383.543,113.381c-0.348-0.256-0.729-0.518-1.109-0.768
				c-0.153,0.102-0.307,0.213-0.443,0.364l-5.656,6.333c0.123,1.851,0.341,4.57-0.043,5.227c-0.54,0.928-3.624,2.266-5.848,3.455
				l1.075-0.118l0.944-0.104c0.319-0.039,0.588-0.049,1.081-0.149c0.853-0.17,1.685-0.485,2.456-0.922
				c0.385-0.22,0.755-0.472,1.105-0.752l0.768-0.597l1.499-1.163l3.002-2.326c1.058-0.819,1.995-2.175,2.62-3.624
				C384.736,116.199,384.289,113.932,383.543,113.381z"/>
			<path fill="#BE1E2D" d="M369.158,98.191c0,0,6.832-4.636,12.628-0.524c5.123,3.633,8.504-1.725,12.106-0.692
				c3.606,1.034,2.866,6.486,6.563,8.52c2.31,1.271,4.758,2.103,7.424,1.888c2.592-0.209,5.045-0.905,6.834,1.5
				c1.519,2.042,2.149,4.861,2.144,7.373c-0.01,3.393-2.338,5.543-5.366,6.644c-3.799,1.381-7.956,1.788-11.035-1.263
				c-3.327-3.296-2.552-5.041-7.152-6.254c-4.604-1.213-11.955,5.095-17.313-1.017c-3.354-2.958-1.175-10.095-2.819-11.979
				C371.527,100.505,367.928,100.622,369.158,98.191z"/>
			<path opacity="0.5" fill="#BE1E2D" d="M414.714,108.884c-1.791-2.405-4.242-1.709-6.834-1.5c-0.71,0.057-1.402,0.035-2.082-0.044
				c0.202,1.597-0.082,3.236-1.592,4.344c-3.383,2.483-8.769-4.486-10.661-6.51c-1.894-2.022-5.248-2.111-8.901,1.898
				c-2.701,2.962-7.458,4.962-9.762,5.807c0.279,0.56,0.633,1.07,1.108,1.489c5.358,6.111,12.709-0.196,17.313,1.017
				c4.601,1.213,3.825,2.958,7.152,6.254c3.079,3.051,7.236,2.644,11.035,1.263c3.028-1.101,5.356-3.251,5.366-6.644
				C416.863,113.745,416.232,110.926,414.714,108.884z"/>
			<path fill="#FFBBA6" d="M458.873,128.247c0,0,2.328-0.613,3.123-1.533c0.799-0.918,1.594-1.654,2.146-0.918
				c0.552,0.734,3.86,5.33,4.78,5.82c0.919,0.491,2.082,1.997,1.531,2.591c-0.552,0.595-3.493-0.691-5.269-2.224
				c-1.778-1.532-5.884-1.47-5.884-1.47L458.873,128.247z"/>
			<path fill="#FFBBA6" d="M446.803,106.578c0,0,1.181-2.1,1.074-3.312c-0.105-1.212-0.079-2.296,0.833-2.181
				c0.912,0.116,6.518,0.938,7.509,0.619c0.994-0.319,2.886-0.107,2.931,0.703c0.043,0.811-2.931,2.028-5.268,2.238
				s-5.152,3.203-5.152,3.203L446.803,106.578z"/>
			<path fill="#00998A" d="M404.956,125.812c0,0,6.427-7.258,30.979-1.394c0.311-6.44,10.807-18.673,10.807-18.673l3.386,1.124
				c0,0-9.736,21.899-11.852,25.441c-3.245,0.59-20.079,2.979-32.736,1.181C403.563,130.982,404.956,125.812,404.956,125.812z"/>
			<path fill="#00A79D" d="M459.582,127.587l-4.458,0.174l0,0c0,0-7.133-0.98-10.226-0.742c-3.093,0.237-8.035,1.454-8.035,1.454
				s-13.198-6.385-19.689-7.566c-6.49-1.181-11.348,1.606-11.348,1.606c-1.27,3.395-1.699,8.173-0.287,10.978
				c4.656,1.771,26.245,0.591,30.9,0.591c4.656,0,23.848-2.657,23.848-2.657L459.582,127.587z"/>
			<path opacity="0.5" fill="#00A79D" d="M450.841,132.662c-0.03,0.001-18.799,0.38-23.538,0c-4.742-0.379-17.786-1.51-17.942-4.189
				c-0.118-1.995-1.229-5.215-1.789-6.728c-1.107,0.407-1.745,0.769-1.745,0.769c-1.27,3.395-1.699,8.173-0.287,10.978
				c4.656,1.771,26.245,0.59,30.9,0.59C438.875,134.081,445.28,133.355,450.841,132.662z"/>
			<path fill="#F16680" d="M383.206,108.307c0,0-3.549,2.048-3.822,4.778c-0.273,2.729-3.412,11.33,0,12.422
				c3.413,1.092,5.461-1.502,8.191,1.365c2.73,2.867,8.191,5.597,18.701,7.235c1.094-3.549,1.494-6.552,0-12.422
				c-2.184-0.955-5.051-0.683-10.236-5.46C390.853,111.446,387.028,105.849,383.206,108.307z"/>
			<path fill="#FFBBA6" d="M370.846,99.483c-2.168,1.227-3.979,3.466-2.897,5.628c1.43,2.861,2.731,3.201,3.229,4.133
				c0.497,0.932,0.559,2.05,0.746,2.299c0.186,0.249,1.242-0.808,1.553-0.622c0.312,0.186,2.672,1.381,3.791,0.659
				c1.455-0.938,2.084-3.347,2.196-4.938c0.212-3.024-1.826-7.941-5.362-8.103C373.146,98.497,371.95,98.859,370.846,99.483z"/>
			<path fill="#FFBBA6" d="M383.09,109.5c-3.297-0.881-5.226-3.653-5.226-3.653s-2.104,1.48-0.866,2.358
				c1.234,0.877,2.68,3.914,2.68,3.914s-1.458,5.73,0.432,5.112c1.674-0.548,3.356-5.281,3.498-7.018
				C383.635,109.878,383.414,109.587,383.09,109.5z"/>
			<path fill="#BE1E2D" d="M366.395,106.042c0,0,2.23,1.661,5.433-0.868c0.775-0.878,2.328,0.908,2.91,2.683
				c0.582,1.775,0.485-1.587,0.582-2.914c0.097-1.326,3.198,1.115,1.697,3.289c0.722,0.667,1.796,1.246,3.348-0.375
				c1.554-1.621,0.46-5.016-0.885-7.441c-1.346-2.426-3.868-5.142-8.041-3.396C367.268,98.766,363.872,102.064,366.395,106.042z"/>
			<g>
				<rect x="345.148" y="131.657" fill="#5FC8D7" width="20.643" height="1.993"/>
				<polygon fill="#5FC8D7" points="337.963,113.25 340.326,113.25 347.438,133.65 345.074,133.65 				"/>
			</g>
			<path opacity="0.5" fill="#F16680" d="M406.276,134.107c0.258-0.834,0.474-1.638,0.639-2.457
				c-3.785-0.381-13.823-3.479-14.386-8.199c-0.271-8.16-4.195-11.196-4.195-11.196l-1.518,11.784c0,0,0.802,1.782,1.714,3.725
				C391.508,130.296,396.863,132.64,406.276,134.107z"/>
			<path fill="#FFBBA6" d="M389.093,113.431c-0.222-0.414-0.474-0.807-0.759-1.176c-1.097-1.42-3.54-1.444-4.353,0.052
				c-1.068,1.964-0.897,4.764-0.798,6.913c0.132,2.92,1.089,5.822,1.053,8.723c-0.846,0.11-4.11,0.676-4.915,0.742
				c-1.684,0.136-3.361,0.315-5.039,0.516c-1.8,0.216-3.684,0.694-5.494,0.747c0,0-1.991,0.057-3.112-0.423
				c-1.121-0.48-1.603-0.961-2.403-0.747c-0.801,0.213-3.949,1.654-4.217,3.042c-0.267,1.388,3.096-0.786,3.897-0.713
				c0.801,0.073,1.174,1.322,2.241,1.178c1.068-0.145,3.01-0.604,3.649-0.604c6.298,1.159,14.164,1.034,17.804,0.894
				c1.21-0.047,2.237-0.897,2.497-2.079C390.2,125.706,391.647,118.202,389.093,113.431z"/>
			<path opacity="0.5" fill="#FFBBA6" d="M387.221,130.279c-1.975,1.738-10.395,2.243-10.52,2.25
				c4.007,0.207,7.748,0.13,9.946,0.044c1.21-0.047,2.237-0.897,2.497-2.08c1.056-4.788,2.503-12.292-0.052-17.063
				c-0.222-0.414-0.474-0.807-0.759-1.176C388.334,112.255,391.284,125.259,387.221,130.279z"/>
		</g>
		<g>
			<path fill="#F16680" d="M263.625,95.689c-3.006-5.437-15.881-4.941-15.881-4.941s-12.875-0.496-15.881,4.941
				c-2.152,3.895,2.034,17.329,3.111,25.658c2.752,0.538,9.627,1.344,12.77,1.344s10.02-0.806,12.771-1.344
				C261.591,113.018,265.779,99.584,263.625,95.689z"/>
			<path opacity="0.5" fill="#F16680" d="M235.459,101.654c-1.226,0.469-2.315,2.644-3.225,5.334
				c0.91,4.853,2.207,10.231,2.74,14.358c2.752,0.538,9.627,1.344,12.77,1.344s10.02-0.806,12.771-1.344
				c0.312-2.41,0.886-5.251,1.489-8.162c-1.296-0.979-4.37-2.201-11.589-3.635C237.321,106.949,235.459,101.654,235.459,101.654z"/>
			<g>
				<path fill="#F16680" d="M262.219,94.04c0,0,5.098,4.377,7.348,15.909c1.947,9.979-5.957,10.913-9.052,11.977
					c-2.128,0.387-0.401-4.989-0.401-4.989l4.119-2.75c0,0-3.277-9.148-4.244-12.532C259.02,98.271,262.219,94.04,262.219,94.04z"/>
				<path opacity="0.5" fill="#F16680" d="M265.309,113.768c-0.967-0.133-2.389-3.298-2.393-3.305
					c0.74,2.113,1.316,3.724,1.316,3.724l-4.119,2.75c0,0-0.324,1.007-0.518,2.118c4.493-1.081,5.805-3.834,6.24-3.977
					C266.275,114.933,266.275,113.902,265.309,113.768z"/>
			</g>
			<g>
				<path fill="#F16680" d="M233.256,94.04c0,0-5.098,4.377-7.348,15.909c-1.947,9.979,5.958,10.913,9.053,11.977
					c2.127,0.387,0.4-4.989,0.4-4.989l-4.119-2.75c0,0,3.278-9.148,4.245-12.532C236.453,98.271,233.256,94.04,233.256,94.04z"/>
				<path opacity="0.5" fill="#F16680" d="M230.167,113.768c0.966-0.133,2.388-3.298,2.392-3.305
					c-0.739,2.113-1.316,3.724-1.316,3.724l4.119,2.75c0,0,0.323,1.007,0.518,2.118c-4.492-1.081-5.805-3.834-6.24-3.977
					C229.199,114.933,229.199,113.902,230.167,113.768z"/>
			</g>
			<path fill="#594A42" d="M268.352,157.452c0,0,0.305,2.958,3.584,4.161c3.279,1.204,5.018,0.82,5.316,2.132
				c0.297,1.313,0,1.396,0,1.396s-8.596,0.382-10.832,0c-2.234-0.383-0.844-7.301-0.844-7.301L268.352,157.452z"/>
			<path fill="#594A42" d="M227.479,157.452c0,0-0.307,2.958-3.586,4.161c-3.278,1.204-5.018,0.82-5.315,2.132
				c-0.299,1.313,0,1.396,0,1.396s8.595,0.382,10.83,0c2.236-0.383,0.845-7.301,0.845-7.301L227.479,157.452z"/>
			<path fill="#877F7D" d="M270.21,130.334c-0.155-3.216-2.208-6.025-5.221-7.162c-3.106-1.173-6.077-1.825-6.077-1.825
				l-11.164-1.168l-11.167,1.168c0,0-2.971,0.652-6.076,1.824c-3.013,1.138-5.065,3.947-5.221,7.163
				c-0.382,7.924,0.471,22.427,0.751,28.199c1.71,1.256,4.849,0.838,4.849,0.838s2.843-10.846,2.966-20.621
				c0.855-6.143,4.596-8.517,13.898-8.517c9.301,0,13.041,2.374,13.896,8.517c0.122,9.775,2.965,20.621,2.965,20.621
				s3.14,0.418,4.85-0.838C269.739,152.761,270.592,138.258,270.21,130.334z"/>
			<path fill="#FFBBA6" d="M250.518,90.527c-0.922-0.58-1.148-3.399-1.148-3.399s-2.342-0.486-2.961,0
				c0.133,1.856-1.079,3.399-1.079,3.399c-2.033,2.305,1.109,3.512,2.595,3.512c1.484,0,3.167-0.783,3.513-1.82
				C251.783,91.183,250.518,90.527,250.518,90.527z"/>
			<path opacity="0.5" fill="#FFBBA6" d="M246.408,87.128c0.045,0.622-0.066,1.202-0.229,1.708c1.114,0.568,2.659,1.231,4.014,1.364
				c-0.652-0.936-0.824-3.071-0.824-3.071S247.027,86.642,246.408,87.128z"/>
			<path fill="#FFBBA6" d="M253.771,75.333c-2.332-4.14-9.57-4.164-11.914,0c-1.026,1.821-0.668,4.422-0.123,6.333
				c0.754,2.641,2.357,5.114,4.773,6.4c0.605,0.322,1.73,0.381,2.424,0.146c2.511-0.853,3.904-3.416,4.752-5.875
				c0.701-2.036,1.168-4.802,0.178-6.831C253.834,75.447,253.803,75.39,253.771,75.333z"/>
			<path fill="#FFBBA6" d="M253.509,81.445c0,0,1.332-1.592,2.158-0.635c0.827,0.957-0.946,3.584-1.883,3.643
				C252.85,84.512,252.683,83.052,253.509,81.445z"/>
			<path fill="#FFBBA6" d="M242.123,81.445c0,0-1.332-1.592-2.158-0.635c-0.828,0.957,0.947,3.584,1.883,3.643
				C242.782,84.512,242.949,83.052,242.123,81.445z"/>
			<path fill="#594A42" d="M243.194,77.193c0,0,8.338,3.941,12.124,2.194c2.401-1.237,3.421-6.256,2.475-7.168
				s-1.674-0.693-2.84-0.548c-1.165,0.146-2.111-1.237-2.766-2.038c-0.655-0.801-0.51-0.219-1.82,0.437
				c-1.434,0.716-3.098,0.089-4.605,0.331c-2.856,0.459-4.551,2.665-5.258,5.299c-0.349,1.294-0.437,2.657-0.171,3.974
				c0.095,0.473,2.085,4.58,2.31,4.298C243.799,82.515,243.811,80.608,243.194,77.193z"/>
			<path fill="#594A42" d="M252.5,78.282c0,0-0.963,4.541,0.477,5.703c1.077-1.857,1.797-3.655,1.797-5.309
				C254.773,77.023,252.5,78.282,252.5,78.282z"/>
			<path opacity="0.5" fill="#FC957A" d="M249.348,83.389c-0.256-0.535-0.878-1.595-1.246-2.211
				c-0.111-0.187-0.39-0.151-0.452,0.057c-0.272,0.907-0.744,2.662-0.342,2.75C247.852,84.105,249.722,84.171,249.348,83.389z"/>
			<path opacity="0.5" fill="#594A42" d="M255.318,79.387c1.666-0.858,2.664-3.534,2.806-5.399c-0.722,1.584-2.356,4.08-5.147,3.835
				c-3.955-0.347-6.068-1.998-7.902-2.53s-3.148,0.544-3.324,2.547c-0.1,1.14-0.852,1.204-1.53,1
				c0.026,0.279,0.058,0.558,0.113,0.833c0.095,0.473,2.085,4.58,2.31,4.298c1.156-1.456,1.168-3.363,0.552-6.778
				C243.194,77.193,251.532,81.135,255.318,79.387z"/>
			<path opacity="0.5" fill="#877F7D" d="M264.81,156.046c-1.054-1.406-1.054-13.453-1.382-17.067s-0.776-4.116,0.805-5.22
				c1.58-1.104-1.581-0.903-2.887-1.104c-1.305-0.2-3.313-2.51-5.119-3.313c-1.809-0.803-4.92-0.803-4.195-1.605
				c0.723-0.804,2.789-1.105,1.686-1.406c-1.105-0.301-2.41-1.104-1.205-1.606c1.205-0.502,8.834-2.033,8.834-2.033
				c0.201-0.164,1.102-0.144,1.258-0.338c-2.084-0.652-3.691-1.006-3.691-1.006l-11.164-1.168l-11.167,1.168
				c0,0-1.608,0.354-3.694,1.007c0.158,0.193,1.056,0.173,1.257,0.336c0,0,7.63,1.531,8.835,2.033
				c1.204,0.502-0.102,1.305-1.205,1.606c-1.104,0.301,0.962,0.602,1.686,1.406c0.724,0.802-2.389,0.802-4.195,1.605
				c-1.808,0.803-3.814,3.113-5.12,3.313c-1.306,0.201-4.468,0-2.886,1.104c1.58,1.104,1.133,1.606,0.805,5.22
				s-0.328,15.662-1.383,17.067c-0.699,0.931-2.83,0.982-4.715,1.085c0.025,0.505,0.051,0.983,0.07,1.402
				c1.71,1.256,4.849,0.838,4.849,0.838s2.843-10.846,2.966-20.621c0.855-6.143,4.596-8.517,13.898-8.517
				c9.301,0,13.041,2.374,13.896,8.517c0.122,9.775,2.965,20.621,2.965,20.621s3.14,0.418,4.85-0.838
				c0.02-0.419,0.045-0.896,0.07-1.402C267.643,157.028,265.51,156.979,264.81,156.046z"/>
			<g>
				<polygon fill="#DDC2BF" points="260.83,122.69 234.658,122.69 232.063,107.463 263.428,107.463 				"/>
				<path fill="#FCE2E0" d="M250.332,115.951c-0.307,0.803-1.438,1.327-2.588,1.327c-1.148,0-2.279-0.523-2.587-1.327
					c-0.403-1.054,0.697-2.183,2.587-2.183C249.635,113.768,250.735,114.897,250.332,115.951z"/>
				<path opacity="0.5" fill="#DDC2BF" d="M234.658,122.69h26.172l0.268-1.564c-13.607,0.156-23.83-7.194-28.66-11.459
					L234.658,122.69z"/>
			</g>
		</g>
		<g>
			<g>
				<path fill="#FFFFFF" d="M275.297,251.867H170.934c-4.425,0-8.012,3.588-8.012,8.014v66.178c0,4.426,3.586,8.012,8.012,8.012
					h104.363c4.426,0,8.013-3.586,8.013-8.012v-66.178C283.31,255.455,279.723,251.867,275.297,251.867z"/>
				<path fill="#FEFEFE" d="M275.434,251.732H171.069c-4.425,0-8.012,3.586-8.012,8.012v66.178c0,4.426,3.587,8.014,8.012,8.014
					h104.364c4.426,0,8.012-3.588,8.012-8.014v-66.178C283.445,255.318,279.859,251.732,275.434,251.732z"/>
				<path fill="#FDFDFD" d="M275.569,251.596H171.206c-4.425,0-8.012,3.588-8.012,8.012v66.18c0,4.426,3.586,8.012,8.012,8.012
					h104.364c4.425,0,8.013-3.586,8.013-8.012v-66.18C283.582,255.184,279.994,251.596,275.569,251.596z"/>
				<path fill="#FCFCFC" d="M275.705,251.459H171.341c-4.425,0-8.012,3.588-8.012,8.014v66.178c0,4.426,3.587,8.012,8.012,8.012
					h104.364c4.426,0,8.012-3.586,8.012-8.012v-66.178C283.717,255.047,280.131,251.459,275.705,251.459z"/>
				<path fill="#FBFBFB" d="M275.842,251.324H171.478c-4.425,0-8.012,3.586-8.012,8.012v66.178c0,4.426,3.586,8.014,8.012,8.014
					h104.364c4.424,0,8.012-3.588,8.012-8.014v-66.178C283.854,254.91,280.266,251.324,275.842,251.324z"/>
				<path fill="#FAFAFA" d="M275.977,251.188H171.613c-4.425,0-8.012,3.588-8.012,8.014v66.178c0,4.426,3.586,8.012,8.012,8.012
					h104.363c4.426,0,8.014-3.586,8.014-8.012v-66.178C283.99,254.775,280.402,251.188,275.977,251.188z"/>
				<path fill="#F9F9FA" d="M276.113,251.053H171.749c-4.425,0-8.011,3.586-8.011,8.012v66.178c0,4.426,3.586,8.012,8.011,8.012
					h104.364c4.426,0,8.012-3.586,8.012-8.012v-66.178C284.125,254.639,280.539,251.053,276.113,251.053z"/>
				<path fill="#F8F8F9" d="M276.249,250.916H171.885c-4.425,0-8.012,3.586-8.012,8.012v66.178c0,4.426,3.586,8.014,8.012,8.014
					h104.364c4.425,0,8.013-3.588,8.013-8.014v-66.178C284.262,254.502,280.674,250.916,276.249,250.916z"/>
				<path fill="#F7F8F8" d="M276.385,250.779H172.021c-4.425,0-8.012,3.588-8.012,8.014v66.178c0,4.426,3.587,8.012,8.012,8.012
					h104.364c4.426,0,8.013-3.586,8.013-8.012v-66.178C284.397,254.367,280.811,250.779,276.385,250.779z"/>
				<path fill="#F6F7F7" d="M276.521,250.645H172.157c-4.425,0-8.012,3.586-8.012,8.012v66.178c0,4.426,3.586,8.014,8.012,8.014
					h104.364c4.426,0,8.012-3.588,8.012-8.014v-66.178C284.533,254.23,280.947,250.645,276.521,250.645z"/>
				<path fill="#F5F6F6" d="M276.656,250.508H172.293c-4.425,0-8.011,3.586-8.011,8.012v66.18c0,4.426,3.586,8.012,8.011,8.012
					h104.363c4.426,0,8.013-3.586,8.013-8.012v-66.18C284.669,254.094,281.082,250.508,276.656,250.508z"/>
				<path fill="#F4F5F5" d="M276.793,250.373H172.43c-4.426,0-8.012,3.586-8.012,8.012v66.178c0,4.426,3.586,8.012,8.012,8.012
					h104.363c4.426,0,8.013-3.586,8.013-8.012v-66.178C284.806,253.959,281.219,250.373,276.793,250.373z"/>
				<path fill="#F3F4F4" d="M276.929,250.236H172.565c-4.425,0-8.012,3.586-8.012,8.012v66.18c0,4.424,3.586,8.012,8.012,8.012
					h104.363c4.425,0,8.013-3.588,8.013-8.012v-66.18C284.941,253.822,281.354,250.236,276.929,250.236z"/>
				<path fill="#F2F3F3" d="M277.065,250.102H172.701c-4.426,0-8.012,3.586-8.012,8.012v66.178c0,4.426,3.586,8.012,8.012,8.012
					h104.364c4.425,0,8.012-3.586,8.012-8.012v-66.178C285.077,253.688,281.49,250.102,277.065,250.102z"/>
				<path fill="#F1F2F2" d="M277.201,249.965H172.837c-4.425,0-8.012,3.586-8.012,8.012v66.178c0,4.426,3.587,8.012,8.012,8.012
					h104.364c4.426,0,8.012-3.586,8.012-8.012v-66.178C285.213,253.551,281.627,249.965,277.201,249.965z"/>
				<path fill="#F0F1F1" d="M277.337,249.828H172.974c-4.426,0-8.013,3.586-8.013,8.012v66.18c0,4.424,3.587,8.012,8.013,8.012
					h104.363c4.425,0,8.013-3.588,8.013-8.012v-66.18C285.35,253.414,281.762,249.828,277.337,249.828z"/>
				<path fill="#EFF0F0" d="M277.473,249.693H173.109c-4.426,0-8.013,3.586-8.013,8.012v66.178c0,4.426,3.587,8.012,8.013,8.012
					h104.363c4.426,0,8.013-3.586,8.013-8.012v-66.178C285.485,253.279,281.898,249.693,277.473,249.693z"/>
				<path fill="#EEEFEF" d="M277.609,249.557H173.245c-4.425,0-8.012,3.586-8.012,8.012v66.178c0,4.426,3.586,8.014,8.012,8.014
					h104.364c4.425,0,8.012-3.588,8.012-8.014v-66.178C285.621,253.143,282.034,249.557,277.609,249.557z"/>
				<path fill="#EDEEEF" d="M277.745,249.42H173.381c-4.425,0-8.012,3.586-8.012,8.012v66.18c0,4.424,3.587,8.012,8.012,8.012
					h104.364c4.425,0,8.012-3.588,8.012-8.012v-66.18C285.757,253.006,282.17,249.42,277.745,249.42z"/>
				<path fill="#ECEDEE" d="M277.881,249.285H173.517c-4.425,0-8.012,3.586-8.012,8.012v66.178c0,4.426,3.587,8.012,8.012,8.012
					h104.364c4.426,0,8.012-3.586,8.012-8.012v-66.178C285.893,252.871,282.307,249.285,277.881,249.285z"/>
				<path fill="#EBECED" d="M278.017,249.148H173.653c-4.426,0-8.012,3.586-8.012,8.012v66.18c0,4.424,3.586,8.012,8.012,8.012
					h104.363c4.425,0,8.013-3.588,8.013-8.012v-66.18C286.029,252.734,282.441,249.148,278.017,249.148z"/>
				<path fill="#EAEBEC" d="M278.152,249.014H173.789c-4.426,0-8.012,3.584-8.012,8.012v66.178c0,4.426,3.586,8.012,8.012,8.012
					h104.363c4.426,0,8.013-3.586,8.013-8.012v-66.178C286.165,252.598,282.578,249.014,278.152,249.014z"/>
				<path fill="#E9EAEB" d="M278.289,248.877H173.925c-4.425,0-8.012,3.586-8.012,8.012v66.18c0,4.424,3.586,8.01,8.012,8.01
					h104.364c4.425,0,8.012-3.586,8.012-8.01v-66.18C286.301,252.463,282.714,248.877,278.289,248.877z"/>
				<path fill="#E8E9EA" d="M278.425,248.742H174.061c-4.425,0-8.012,3.584-8.012,8.01v66.18c0,4.424,3.587,8.012,8.012,8.012
					h104.364c4.425,0,8.012-3.588,8.012-8.012v-66.18C286.437,252.326,282.85,248.742,278.425,248.742z"/>
				<path fill="#E8E9E9" d="M278.561,248.605H174.197c-4.425,0-8.012,3.586-8.012,8.012v66.178c0,4.426,3.587,8.012,8.012,8.012
					h104.364c4.426,0,8.013-3.586,8.013-8.012v-66.178C286.573,252.191,282.986,248.605,278.561,248.605z"/>
				<path fill="#E7E8E8" d="M278.697,248.469H174.333c-4.425,0-8.013,3.586-8.013,8.012v66.18c0,4.424,3.587,8.01,8.013,8.01
					h104.364c4.425,0,8.012-3.586,8.012-8.01v-66.18C286.709,252.055,283.122,248.469,278.697,248.469z"/>
				<path fill="#E6E7E7" d="M278.833,248.334H174.469c-4.426,0-8.012,3.584-8.012,8.01v66.18c0,4.424,3.586,8.012,8.012,8.012
					h104.364c4.425,0,8.012-3.588,8.012-8.012v-66.18C286.845,251.918,283.258,248.334,278.833,248.334z"/>
				<path fill="#E5E6E6" d="M278.969,248.197H174.604c-4.425,0-8.012,3.586-8.012,8.012v66.18c0,4.424,3.587,8.01,8.012,8.01
					h104.364c4.425,0,8.012-3.586,8.012-8.01v-66.18C286.98,251.783,283.394,248.197,278.969,248.197z"/>
				<path fill="#E4E5E5" d="M279.104,248.063H174.741c-4.425,0-8.012,3.584-8.012,8.01v66.18c0,4.424,3.587,8.012,8.012,8.012
					h104.364c4.426,0,8.013-3.588,8.013-8.012v-66.18C287.117,251.646,283.53,248.063,279.104,248.063z"/>
				<path fill="#E3E4E4" d="M279.24,247.926H174.877c-4.426,0-8.012,3.584-8.012,8.012v66.178c0,4.426,3.586,8.012,8.012,8.012
					H279.24c4.426,0,8.013-3.586,8.013-8.012v-66.178C287.253,251.51,283.666,247.926,279.24,247.926z"/>
				<path fill="#E2E3E4" d="M279.377,247.789H175.013c-4.425,0-8.012,3.586-8.012,8.012v66.18c0,4.424,3.586,8.01,8.012,8.01
					h104.364c4.425,0,8.012-3.586,8.012-8.01v-66.18C287.389,251.375,283.802,247.789,279.377,247.789z"/>
				<path fill="#E1E2E3" d="M279.513,247.654H175.148c-4.425,0-8.012,3.584-8.012,8.01v66.18c0,4.424,3.586,8.012,8.012,8.012
					h104.364c4.425,0,8.013-3.588,8.013-8.012v-66.18C287.525,251.238,283.938,247.654,279.513,247.654z"/>
				<path fill="#E0E1E2" d="M279.648,247.518H175.285c-4.426,0-8.012,3.586-8.012,8.012v66.18c0,4.424,3.586,8.01,8.012,8.01
					h104.363c4.426,0,8.012-3.586,8.012-8.01v-66.18C287.66,251.104,284.074,247.518,279.648,247.518z"/>
				<path fill="#DFE0E1" d="M279.785,247.381H175.421c-4.425,0-8.012,3.586-8.012,8.012v66.18c0,4.424,3.587,8.012,8.012,8.012
					h104.364c4.425,0,8.012-3.588,8.012-8.012v-66.18C287.797,250.967,284.21,247.381,279.785,247.381z"/>
				<path fill="#DEDFE0" d="M279.92,247.246H175.557c-4.426,0-8.012,3.584-8.012,8.01v66.18c0,4.424,3.586,8.012,8.012,8.012H279.92
					c4.426,0,8.013-3.588,8.013-8.012v-66.18C287.933,250.83,284.346,247.246,279.92,247.246z"/>
				<path fill="#DDDEDF" d="M280.057,247.109H175.692c-4.425,0-8.012,3.586-8.012,8.012v66.18c0,4.424,3.587,8.01,8.012,8.01
					h104.364c4.425,0,8.012-3.586,8.012-8.01v-66.18C288.068,250.695,284.481,247.109,280.057,247.109z"/>
				<path fill="#DCDDDE" d="M280.192,246.975H175.828c-4.425,0-8.012,3.584-8.012,8.01v66.18c0,4.424,3.587,8.01,8.012,8.01h104.364
					c4.425,0,8.012-3.586,8.012-8.01v-66.18C288.204,250.559,284.617,246.975,280.192,246.975z"/>
				<path fill="#DBDCDD" d="M280.328,246.838H175.965c-4.426,0-8.013,3.584-8.013,8.012v66.18c0,4.424,3.587,8.01,8.013,8.01
					h104.363c4.426,0,8.013-3.586,8.013-8.01v-66.18C288.341,250.422,284.754,246.838,280.328,246.838z"/>
				<path fill="#DADBDC" d="M280.465,246.703H176.101c-4.425,0-8.012,3.584-8.012,8.01v66.18c0,4.424,3.587,8.01,8.012,8.01h104.364
					c4.425,0,8.012-3.586,8.012-8.01v-66.18C288.477,250.287,284.89,246.703,280.465,246.703z"/>
				<path fill="#D9DADB" d="M280.601,246.566H176.237c-4.426,0-8.012,3.584-8.012,8.01v66.182c0,4.422,3.586,8.01,8.012,8.01
					h104.364c4.425,0,8.012-3.588,8.012-8.01v-66.182C288.612,250.15,285.025,246.566,280.601,246.566z"/>
				<path fill="#D8DADA" d="M280.736,246.43H176.373c-4.425,0-8.012,3.586-8.012,8.012v66.18c0,4.424,3.587,8.01,8.012,8.01h104.364
					c4.426,0,8.012-3.586,8.012-8.01v-66.18C288.748,250.016,285.162,246.43,280.736,246.43z"/>
				<path fill="#D7D9D9" d="M280.872,246.295H176.508c-4.425,0-8.012,3.584-8.012,8.01v66.18c0,4.424,3.587,8.01,8.012,8.01h104.364
					c4.425,0,8.013-3.586,8.013-8.01v-66.18C288.885,249.879,285.297,246.295,280.872,246.295z"/>
				<path fill="#D6D8D9" d="M281.008,246.158H176.645c-4.425,0-8.012,3.584-8.012,8.01v66.182c0,4.422,3.587,8.01,8.012,8.01
					h104.363c4.426,0,8.012-3.588,8.012-8.01v-66.182C289.02,249.742,285.434,246.158,281.008,246.158z"/>
				<path fill="#D5D7D8" d="M281.145,246.023H176.78c-4.425,0-8.012,3.584-8.012,8.01v66.18c0,4.424,3.587,8.01,8.012,8.01h104.364
					c4.425,0,8.012-3.586,8.012-8.01v-66.18C289.156,249.607,285.569,246.023,281.145,246.023z"/>
				<path fill="#D4D6D7" d="M281.28,245.887H176.917c-4.426,0-8.012,3.584-8.012,8.01v66.18c0,4.424,3.586,8.012,8.012,8.012H281.28
					c4.425,0,8.013-3.588,8.013-8.012v-66.18C289.293,249.471,285.705,245.887,281.28,245.887z"/>
				<path fill="#D3D5D6" d="M281.416,245.75H177.052c-4.425,0-8.012,3.586-8.012,8.012v66.18c0,4.424,3.587,8.01,8.012,8.01h104.364
					c4.426,0,8.012-3.586,8.012-8.01v-66.18C289.428,249.336,285.842,245.75,281.416,245.75z"/>
				<path fill="#D2D4D5" d="M281.553,245.615H177.188c-4.426,0-8.012,3.584-8.012,8.01v66.18c0,4.424,3.586,8.01,8.012,8.01h104.364
					c4.424,0,8.012-3.586,8.012-8.01v-66.18C289.564,249.199,285.977,245.615,281.553,245.615z"/>
				<path fill="#D1D3D4" d="M281.688,245.479H177.324c-4.425,0-8.012,3.584-8.012,8.01v66.182c0,4.422,3.587,8.01,8.012,8.01
					h104.363c4.426,0,8.013-3.588,8.013-8.01v-66.182C289.7,249.063,286.113,245.479,281.688,245.479z"/>
			</g>
			<g>
				<path fill="#FFFFFF" d="M281.668,245.479H177.304c-4.425,0-8.012,3.584-8.012,8.01v66.182c0,4.422,3.587,8.01,8.012,8.01
					h104.364c4.426,0,8.012-3.588,8.012-8.01v-66.182C289.68,249.063,286.094,245.479,281.668,245.479z"/>
				<path fill="#00A79D" d="M281.668,245.479H177.304c-4.425,0-8.012,3.584-8.012,8.01v11.184H289.68v-11.184
					C289.68,249.063,286.094,245.479,281.668,245.479z"/>
				<circle fill="#EF4065" cx="191.95" cy="255.074" r="2.777"/>
				<circle fill="#F7941D" cx="179.988" cy="255.074" r="2.777"/>
				<circle fill="#5FC8D7" cx="203.911" cy="255.074" r="2.776"/>
				<rect x="178.225" y="276.285" fill="#DB3931" width="7.127" height="32.951"/>
				<rect x="189.68" y="283.914" fill="#FFCE55" width="7.126" height="25.322"/>
				<rect x="201.135" y="279.957" fill="#5FC8D7" width="7.127" height="29.279"/>
				<rect x="212.59" y="290.117" fill="#006838" width="7.127" height="19.537"/>
				<circle fill="#5FC8D7" cx="239.725" cy="280.439" r="8.854"/>
				<rect x="256.271" y="278.916" fill="#FFCE55" width="23.428" height="3.047"/>
				<rect x="232.844" y="292.436" fill="#877F7D" width="46.855" height="3.045"/>
				<rect x="232.844" y="299.313" fill="#877F7D" width="46.855" height="3.045"/>
				<rect x="232.844" y="306.193" fill="#877F7D" width="46.855" height="3.043"/>
				<rect x="185.989" y="316.742" fill="#FFCE55" width="16.36" height="3.047"/>
				<rect x="178.225" y="315.234" fill="#DB3931" width="6.063" height="6.063"/>
				<rect x="216.026" y="316.742" fill="#FFCE55" width="16.36" height="3.047"/>
				<rect x="208.262" y="315.234" fill="#5FC8D7" width="6.063" height="6.063"/>
			</g>
		</g>
		<g>
			<path fill="#594A42" d="M482.237,392.961c-0.075,0.227,0.094,3-2.98,3.822c-3.074,0.826-5.247,1.051-5.622,2.102
				c-0.374,1.047,0,1.047,0,1.047s9.446,0,11.319-0.598c0.601-0.975,0.375-6.373,0.375-6.373H482.237z"/>
			<path fill="#594A42" d="M501.779,392.926c-0.028,0.229,0.736,2.986-2.158,3.867c-2.895,0.885-5.02,1.152-5.17,2.205
				c-0.147,1.055,0.227,1.045,0.227,1.045s9.443-0.191,11.189-0.824c0.39-0.982-0.998-6.354-0.998-6.354L501.779,392.926z"/>
			<path fill="#9D2E24" d="M479.447,326.441c0,0-1.984,35.164-1.336,42.064c0.646,6.904,3.664,25.238,3.664,25.238h4.101
				l-1.078-26.316c0,0,3.234-17.688,4.635-20.705c2.698,5.393,4.444,21.916,4.444,21.916l7.313,25.105h4.745
				c0,0-5.175-25.453-4.96-26.102c0.215-0.645,2.515-27.086-3.164-39.641C491.914,325.584,479.447,326.441,479.447,326.441z"/>
			<path opacity="0.5" fill="#9D2E24" d="M479.072,333.502c2.746,1.201,10.073,4.236,14.299,4.381
				c4.326,0.145,7.146,8.229,8.218,13.643c-0.142-7.574-0.916-16.244-3.274-22.316c-4.432,0.381-12.079,1.084-13.522,1.523
				c-2.056,0.627-4.38-3.309-4.915-2.949c-0.113,0.074-0.302,0.164-0.521,0.295C479.289,329.322,479.189,331.205,479.072,333.502z"
				/>
			<path fill="#FFBBA6" d="M513.462,333.109c0,0-1.382,2.617-2.802,3.873c-1.421,1.256,0.711,0.709,1.911-0.654
				c0.491-0.494,0.656,1.586,0.11,2.238c-0.546,0.654-1.913,1.475-2.076,1.641c-0.165,0.164,1.639-0.184,2.732-0.893
				c-0.493,0.928-2.459,1.875-2.296,2.205c0.163,0.324,2.35,0.324,4.043-1.094c1.694-1.422,0.874-6.447,0.766-7.049
				C515.741,332.775,513.462,333.109,513.462,333.109z"/>
			<path fill="#FFBBA6" d="M475.576,274.287c0,0,3.562-0.746,5.231-1.041c1.675-0.297-0.945-0.66-2.541-0.982
				c0.112-0.965,2.781-3.666,3.715-4.572c0.934-0.904-1.038-0.172-2.229,0.893c-0.775,0.754-1.13,0.992-1.13,0.992
				s1.83-3.645,1.631-4.305c-0.198-0.662-3.692,1.236-4.627,2.141c-0.934,0.904-1.831,5.072-1.831,5.072L475.576,274.287z"/>
			<path fill="#B38FF7" d="M515.881,310.689c-0.201-0.611-0.309-1.137-0.619-1.824c-0.322-0.668-0.749-1.506-1.065-1.918
				c-0.692-1.043-1.354-1.852-2.033-2.656c-1.349-1.594-2.712-3.025-4.094-4.422c-1.3-1.299-2.596-2.549-3.91-3.781
				c-0.027-0.023-0.056-0.047-0.083-0.07c-2.318-3.551-13.897-3.15-13.897-3.15s-9.753,0.973-10.206,0.908
				c-1.633-0.225-3.256-0.504-4.798-0.838c-0.009-0.1-4.438-1.277-4.757-1.383c-0.376-0.123-0.771-0.258-1.037-0.553
				c-0.634-0.707,0.205-2.611,0.46-3.342c0.492-1.492,1.153-3.031,1.871-4.555c1.45-3.037,3.164-6.088,4.965-8.977l-3.154-2.375
				c-2.361,2.762-4.548,5.559-6.61,8.598c-1.021,1.523-2.008,3.096-2.892,4.83c-0.837,1.793-1.797,3.492-1.918,6.475
				c-0.018,0.736,0.124,1.701,0.542,2.697c0.212,0.453,0.641,1.145,0.852,1.363l0.744,0.826c1.001,0.994,1.948,1.625,2.877,2.207
				c1.845,1.109,3.626,1.896,5.409,2.617c1.377,0.547,2.731,1.023,4.089,1.471c0.213,4.494,1.405,10.152,1.689,14.986
				c0.485,8.24,0.53,14.549,0.53,14.549s12.133,3.885,21.341,0.252c0.447-5.063,1.518-16.533,2.835-24.338
				c1.043,0.725,4.287,3.24,4.732,3.676c0.323,0.277,0.263,0.314,0.427,0.439c0.13,0.135,0.277,0.52,0.431,0.768
				c1.186,2.707,1.916,6.467,2.497,10.008c0.583,3.596,1.007,7.303,1.32,10.955l3.949,0.027c0.308-3.809,0.507-7.57,0.533-11.416
				C516.878,318.865,516.921,315.121,515.881,310.689z M469.216,291.314c-0.019-0.055-0.011-0.162-0.021-0.238
				c0.016,0.033,0.046,0.072,0.042,0.098C469.318,291.357,469.237,291.459,469.216,291.314z"/>
			<path fill="#FFBBA6" d="M492.795,292.559c-0.261-1.488-0.224-3.713-0.224-3.713l-3.205,0.473c0,0,0.06,2.908-1.661,4.156
				c-0.518,2.313,2.031,2.926,4.507,0.822C492.709,293.873,492.909,293.203,492.795,292.559z"/>
			<path fill="#8C67E8" d="M490.232,295.432c0,0-0.407-1.221,0.395-1.791c0.8-0.574,1.941-1.088,2.199-1.83
				c0.545,0.457,0.946,1.219,0.888,1.809c-0.056,0.592-2.572,3.049-2.572,3.049L490.232,295.432z"/>
			<path fill="#8C67E8" d="M488.643,292.385c0,0-0.516,1.113,0.249,1.674c0.209,0.313,0.448,1.912-0.419,2.436
				c0,0-1.427-1.324-1.601-2.611C486.768,292.943,487.942,292.24,488.643,292.385z"/>
			<circle fill="#8C67E8" cx="489.501" cy="299.682" r="0.748"/>
			<circle fill="#8C67E8" cx="489.09" cy="304.461" r="0.748"/>
			<path opacity="0.5" fill="#B38FF7" d="M477.27,299.236c-0.15-0.9-8.908,0.412-13.099-4.998c-0.968-1.508-1.416-4.324-1.349-6.342
				c-0.375,1.041-0.657,2.23-0.72,3.76c-0.018,0.736,0.124,1.701,0.542,2.697c0.212,0.453,0.641,1.145,0.852,1.363l0.744,0.826
				c1.001,0.994,1.948,1.625,2.877,2.207c1.845,1.109,3.626,1.896,5.409,2.617c1.377,0.547,2.731,1.023,4.089,1.471
				C476.615,302.838,477.42,300.133,477.27,299.236z"/>
			<path opacity="0.5" fill="#FFBBA6" d="M489.366,289.318c0,0,0.017,0.883-0.253,1.881c0.995,0.408,2.235,0.682,3.563,0.418
				c-0.126-1.338-0.104-2.771-0.104-2.771L489.366,289.318z"/>
			<path fill="#FFBBA6" d="M498.816,280.682c-0.223-0.73-0.596-1.424-1.138-2.047c-1.202-1.381-3.028-2.121-4.848-1.967
				c-3.457,0.414-5.187,3.213-6.34,6.094s-1.97,4.715-0.493,6.09c1.533,1.432,5.246,1.135,8.293,0.229
				C497.749,288.051,499.829,284.006,498.816,280.682z"/>
			<path fill="#9D2E24" d="M488.305,276.65c0,0,0.071,3.586,6.211,5.777c0.494,0.918-0.593,2.963-2.378,3.6
				c-1.787,0.631,1.134,0.844,2.497,0c1.361-0.848,1.177,1.492,0,1.66c-1.179,0.172-2.624,1.168-2.334,1.871
				c0.29,0.707,2.778,0.912,5.673-1.486c2.894-2.398,4.161-6.352,3.598-8.396c-0.438-1.588-2.036-2.82-3.332-3.693
				c-1.556-1.049-3.38-1.584-4.909-2.689c-0.308-0.225-1.045-0.713-0.98,0.012c0.119,1.342-0.445,0.514-1.151,0.09
				s-1.413-0.494-1.201,0.494c0.212,0.986-0.135,0.492-0.984,0.141C488.164,273.676,488.194,275.424,488.305,276.65z"/>
			<path opacity="0.5" fill="#9D2E24" d="M500.018,285.738c-1.727-0.25-2.897-1.791-2.363-3.17c0.642-1.662-0.107-1.555-3.935-2.252
				c-3.308-0.602-4.983-4.662-5.378-5.752c-0.129,0.553-0.098,1.396-0.037,2.086c0,0,0.071,3.586,6.211,5.777
				c0.492,0.918-0.593,2.963-2.378,3.6c-1.787,0.631,1.134,0.844,2.497,0c1.361-0.848,1.177,1.492,0,1.66
				c-1.179,0.172-2.624,1.168-2.334,1.871c0.29,0.707,2.778,0.912,5.673-1.486C498.791,287.393,499.463,286.586,500.018,285.738z"/>
			<path opacity="0.5" fill="#B38FF7" d="M510.612,314.055c-0.283-1.129,0.918-2.4,0.848-2.967c-0.071-0.564-1.625,0.213-2.33-0.633
				c-0.704-0.848-5.364-7.344-5.575-6.74c0,0-2.095,1.664-2.59,5.275c-0.496,3.609-1.557,12.32-3.115,13.734
				c-1.559,1.416-9.347,3.033-5.595,3.57c3.753,0.537,6.02,1.459,5.453,2.592c-0.55,1.1-2.695,5.197-18.991,2.789
				c0.006,0.447,0.006,0.697,0.006,0.697s12.135,3.885,21.343,0.252c0.445-5.063,1.517-16.533,2.835-24.338
				c0.076,0.055,0.169,0.119,0.267,0.191c0.024,0.018,0.053,0.039,0.08,0.057c0.077,0.057,0.159,0.117,0.246,0.182
				c0.033,0.025,0.068,0.049,0.104,0.078c0.103,0.076,0.21,0.156,0.322,0.238c0.015,0.014,0.03,0.025,0.047,0.037
				c0.141,0.105,0.288,0.215,0.437,0.328l0,0c1.32,1.006,2.924,2.268,3.228,2.564c0.324,0.277,0.263,0.314,0.428,0.439
				c0.13,0.135,0.277,0.52,0.43,0.768c1.188,2.707,1.918,6.467,2.498,10.008c0.501,3.104,0.869,6.283,1.168,9.443
				c0.003-0.027,0.009-0.045,0.012-0.074C512.605,328.1,510.895,315.182,510.612,314.055z"/>
			<path opacity="0.5" fill="#9D2E24" d="M483.843,362.363c-0.354,3.635-2.227,4.57-2.46,4.92c-0.235,0.354,1.99,0.938,2.46,2.578
				c0.467,1.641,1.667,14.984,1.669,15l-0.714-17.434c0,0,3.234-17.688,4.636-20.705c0,0-1.728-1.926-2.548-3.213
				C486.066,342.219,484.192,358.734,483.843,362.363z"/>
		</g>
		<g>
			<path fill="#594A42" d="M184.682,408.666c-0.833-1.299-4.967-0.373-7.156-1.617c-1.722-0.977-1.622-3.648-1.622-3.648
				l-3.44-0.523c0,0-0.952,3.898-1.002,6.543c-0.013,0.727,0.527,1.354,1.248,1.467c6.958,1.078,12.353,0.357,12.353,0.357
				S185.514,409.967,184.682,408.666z"/>
			<path fill="#594A42" d="M163.264,406.834c-0.807-1.26-4.36-1.205-6.483-2.412c-1.668-0.949-1.181-3.479-1.181-3.479l-3.297-0.502
				c0,0-1.352,3.713-1.4,6.279c-0.013,0.705,0.511,1.314,1.209,1.424c6.745,1.045,11.521,1.186,11.521,1.186
				S164.07,408.096,163.264,406.834z"/>
			<path fill="#00A79D" d="M180.408,375.023l-2.252-34.854l-19.496-0.301c0,0-2.017,4.295-2.277,8.67
				c-0.26,4.377,0.477,18.672,0.477,18.674l-0.315,4.783l0.082-0.455l-5.152,29.811l4.207,1.008l8.896-28.918l0.082-0.457
				l2.878-19.297l4.73,22.119l-0.326,28.398l4.281,0.383l4.192-28.83l0.023-0.16L180.408,375.023z"/>
			<path opacity="0.5" fill="#00A79D" d="M178.156,340.17l-19.372-0.301c-0.043,0-0.083,0-0.125,0
				c-0.009,0.021-1.285,2.75-1.934,6.07c3.505,0.201,9.998,0.328,13.182,2.389c3.81,2.467,7.519,8.43,9.575,12.377L178.156,340.17z"
				/>
			<path opacity="0.5" fill="#00A79D" d="M163.75,357.463c-1.402,2.785-0.254,11.803-1.238,13.277
				c-0.983,1.477-2.951,0.352-1.639,1.488c1.312,1.133-2.2,20.402-2.2,20.402l0,0l5.903-19.189l0.082-0.457l2.878-19.297
				C167.537,353.688,165.152,354.674,163.75,357.463z"/>
			<path fill="#FFBBA6" d="M175.113,282.42c-1.6-2.496-6.229-2.957-9.64-0.475c-3.412,2.479-0.689,9.035-0.689,9.035
				c2.661,5.811,9.236,6.154,10.853,3.643C177.253,292.107,176.712,284.918,175.113,282.42z"/>
			<path fill="#FFBBA6" d="M172.067,294.516c0,0-0.558,4.797,1.137,7.561c0,0-2.766,0.289-4.831-0.088
				c-2.065-0.375,0.683-8.979,0.683-8.979S171.226,293.014,172.067,294.516z"/>
			<path fill="#0B5F99" d="M173.43,277.498c-2.604-0.107-5.875,0.488-8.375,1.594c-2.185,0.967-3.453,3.262-3.169,5.633
				c0.433,3.611,1.845,7.408,3.29,9.48c1.896,2.721,7.254,3.467,7.913,1.92c0.659-1.549-0.329-3.262-1.377-4.135
				c-1.049-0.869,0.197-3.125,1.018-2.463c0.822,0.664,1.237,3.266,1.991,2.52c0.755-0.744-2.678-5.498-0.545-5.734
				c1.558-0.176,2.768-1.406,3.564-2.881c0.596-1.104,0.96-2.338,1.064-3.369C179.1,277.154,175.32,277.574,173.43,277.498z"/>
			<path fill="#A59C9A" d="M166.383,298.281c0,0,1.378-0.842,3.106-0.439c1.727,0.406,3.769,1.246,3.769,1.246l0.869,2.559
				c0,0-3.269-0.805-5.067-0.715C167.263,301.023,165.341,301.051,166.383,298.281z"/>
			<path fill="#FFBBA6" d="M148.877,336.549c0,0,1.171,4.365,1.759,5.293c0.589,0.924-0.646,0.586-1.338-0.596
				c-0.692-1.184-0.839-0.443-0.778-0.031c0.061,0.408,0.462,2.994,0.372,3.584c-0.091,0.586-0.438-0.064-0.7-1.025
				c-0.264-0.959-0.458-1.551-0.458-1.551s-0.009,2.566-0.566,2.807c-0.556,0.242-1.784-1.539-2.225-2.646
				c-0.442-1.107,1.704-5.971,1.704-5.971L148.877,336.549z"/>
			<path fill="#FFBBA6" d="M209.318,293.053c0,0,2.889-3.826,4.155-5.125c1.265-1.303,3.651-2.748,3.977-2.412
				c0.325,0.338-1.647,1.752-1.989,2.322c-0.342,0.574,0.977,0.971,1.533,2.182c0.557,1.209-0.257,2.727-1.259,3.162
				c-1.001,0.439-2.364,0.289-2.911,0.775c-0.547,0.488-1.594,1.277-1.594,1.277L209.318,293.053z"/>
			<path fill="#877F7D" d="M209.795,292.156c-2.8,2.449-5.27,5.172-8.137,7.516c-1.432,1.17-2.875,2.328-4.322,3.412
				c-0.719,0.551-1.449,1.076-2.15,1.545c-0.349,0.23-0.709,0.477-1.004,0.623c-0.132,0.064-0.357,0.223-0.406,0.213
				c-0.057-0.006-0.086,0.01-0.136,0.018c-0.157-0.088-0.888,0.004-1.694-0.076c-0.76-0.031-1.646-0.129-2.493-0.225
				c-1.722-0.193-3.515-0.49-5.293-0.795c-1.138-0.203-11.826-4.287-13.945-4.652c-0.502-0.086-1.028-0.117-1.537-0.09
				c-4.478,0.248-7.476,1.17-9.255,2.822c-0.359,0.271-0.701,0.574-0.991,0.949c-0.946,1.223-1.879,2.451-2.811,3.701
				c-2.066,2.805-4.084,5.572-5.976,8.805c-0.981,1.588-1.868,3.828-2.217,5.594c-0.415,1.83-0.659,3.588-0.845,5.334
				c-0.351,3.496-0.487,6.902-0.487,10.367l3.162,0.273c0.644-3.238,1.434-6.51,2.386-9.621c0.482-1.551,1.021-3.074,1.638-4.447
				c0.647-1.451,1.222-2.287,2.235-3.42c0.6-0.674,1.246-1.352,1.912-2.027c-0.215,8.508-0.835,19.035-1.048,25.686
				c9.328,3.516,22.538,0.914,22.538,0.914s0.145-15.584,1.666-21.346c0.66-2.496,1.357-5.859,1.702-9.127
				c0.44-0.02,0.873-0.025,1.314-0.047c1.946-0.107,3.881-0.217,5.891-0.441c1.015-0.119,2-0.225,3.096-0.434
				c1.054-0.189,2.183-0.383,3.794-1.066c0.371-0.186,0.738-0.424,1.092-0.65c0.358-0.232,0.49-0.383,0.742-0.584
				c0.477-0.381,0.827-0.736,1.203-1.094c0.738-0.717,1.412-1.422,2.066-2.133c1.317-1.422,2.56-2.854,3.791-4.295
				c2.457-2.883,4.831-5.789,7.182-8.74L209.795,292.156z"/>
			<path opacity="0.5" fill="#0B5F99" d="M170.243,284.73c-2.183,0.547-0.916,5.227-3.705,5.256
				c-1.565,0.014-2.646,0.039-3.503-0.299c0.61,1.803,1.368,3.408,2.14,4.518c1.896,2.721,7.254,3.467,7.913,1.92
				c0.659-1.549-0.329-3.262-1.377-4.135c-1.049-0.869,0.197-3.125,1.018-2.463c0.822,0.664,1.237,3.266,1.991,2.52
				c0.755-0.744-2.678-5.498-0.545-5.734c1.558-0.176,2.768-1.406,3.564-2.881c0.596-1.104,0.96-2.338,1.064-3.369
				C178.803,280.063,177.33,284.564,170.243,284.73z"/>
			<path opacity="0.5" fill="#877F7D" d="M195.834,309.613c-2.535,0.705-9.102,1.549-15.397,0.986
				c-3.479,0.846-3.323,7.463-3.823,16.199c-0.5,8.73-0.967,8.799-3.41,9.613c-2.442,0.811-2.206,2.217,0,2.5
				c2.128,0.273-2.29,6.027-16.783,3.52c-0.015,0.42-0.03,0.832-0.043,1.229c9.328,3.516,22.538,0.914,22.538,0.914
				s0.145-15.584,1.666-21.346c0.66-2.496,1.357-5.859,1.702-9.127c0.44-0.02,0.873-0.025,1.314-0.047
				c1.946-0.107,3.881-0.217,5.891-0.441c1.015-0.119,2-0.225,3.096-0.434c1.054-0.189,2.183-0.383,3.794-1.066
				c0.371-0.186,0.738-0.424,1.092-0.65c0.358-0.232,0.49-0.383,0.742-0.584c0.477-0.381,0.827-0.736,1.203-1.094
				c0.738-0.717,1.412-1.422,2.066-2.133c1.317-1.422,2.56-2.854,3.791-4.295c0.779-0.914,1.539-1.836,2.303-2.754
				C206.968,301.15,198.28,308.932,195.834,309.613z"/>
			<path opacity="0.5" fill="#877F7D" d="M151.475,320.201c-0.577,2-1.448,13.717-1.448,13.717s0.015-0.027,0.037-0.068
				c0.472-2.023,0.983-4.035,1.579-5.98c0.482-1.551,1.021-3.074,1.638-4.447c0.647-1.451,1.222-2.287,2.235-3.42
				c0.6-0.674,1.246-1.352,1.912-2.027c0,0,1.134-7.547,1.245-8.434C158.783,308.652,152.051,318.201,151.475,320.201z"/>
		</g>
	</g>
</g>
</svg>
